<?xml version="1.0" encoding="utf-8"?>
<!-- Generator: Adobe Illustrator 19.2.0, SVG Export Plug-In . SVG Version: 6.00 Build 0)  -->
<svg version="1.1" id="Layer_1" xmlns="http://www.w3.org/2000/svg" xmlns:xlink="http://www.w3.org/1999/xlink" x="0px" y="0px"
	 viewBox="0 0 113.7 113.3" style="enable-background:new 0 0 113.7 113.3;" xml:space="preserve">
<path style="fill-rule:evenodd;clip-rule:evenodd;fill:#C7233F;" d="M109,78.8H48.1l2.7-2.7c0.3-0.3,0.5-0.8,0.5-1.3
	c0-0.5-0.2-1-0.5-1.3l-14-14c6.9-5.6,22.2-16,31.2-12.6c1,0.8,2.2,1.3,3.5,1.3h0c2.2,0,4.2-1.4,5.1-3.4c0.8-2.1,0.4-4.4-1.2-6
	L65,28.3c1.7-2,2.7-4.6,2.7-7.2h35.8c3.1,0,5.6,2.5,5.6,5.6V78.8z M109,88.1c0,3.1-2.5,5.6-5.6,5.6H10.3c-3.1,0-5.6-2.5-5.6-5.6
	v-5.6H109V88.1z M43.8,101.2v-3.7h26.1v3.7H43.8z M84.8,104.9v3.7H28.9v-3.7H84.8z M4.7,73.9l0.9,0.9c2.9,2.9,7.6,2.9,10.5,0
	l2.7-2.7c1.6,0.8,3.5,0.7,5-0.2l12.6,7H4.7V73.9z M4.7,26.7c0-3.1,2.5-5.6,5.6-5.6h20.1c-2.9,8.5-9.7,17.5-13.1,21.5L7,52.8
	c-1.6,1.7-2.1,4.2-1.1,6.3l-1.2,1.2V26.7z M30.9,65.1l3.2-3.2l12.8,12.8l-3.6,3.6l-16.5-9.2L30.9,65.1z M16,69.6l-2.5,2.5
	c-1.5,1.5-3.8,1.5-5.3,0l-2.4-2.4C5.1,69,4.7,68,4.7,67c0-1,0.4-1.9,1.1-2.6l2.5-2.5L16,69.6z M9.7,58.1c-0.7-0.7-0.7-1.9,0-2.6
	l8.9-8.9l12.8,12.8l-8.6,8.6l-0.4,0.4c-0.7,0.7-1.9,0.7-2.6,0L9.7,58.1z M35.5,14.4l2.6,2.6l25.5,25.5
	c-11.4,0.3-25.1,10.8-29.4,14.4L21.1,43.7C24.7,39.5,35.2,25.8,35.5,14.4z M34.1,5.2c0.3-0.3,0.8-0.5,1.3-0.5c0.5,0,0.9,0.2,1.3,0.5
	l11.2,11.2c0,0.1,0.1,0.1,0.1,0.2l24.8,24.8c0.3,0.3,0.5,0.8,0.5,1.3c0,0.5-0.2,0.9-0.5,1.2l0,0c-0.3,0.3-0.8,0.5-1.2,0.5h0
	c-0.5,0-0.9-0.2-1.3-0.5L34.1,7.7c-0.3-0.3-0.5-0.8-0.5-1.3C33.6,6,33.8,5.5,34.1,5.2z M59.1,14.1c2.4,0.9,4.2,3,4.7,5.5
	c0.1,0.5,0.1,1,0.1,1.5c0,1.7-0.6,3.3-1.6,4.6L51.9,15.2C53.9,13.6,56.7,13.2,59.1,14.1z M71.8,60.2h16.8c1,0,1.9-0.8,1.9-1.9
	s-0.8-1.9-1.9-1.9H71.8c-1,0-1.9,0.8-1.9,1.9C69.9,59.4,70.7,60.2,71.8,60.2z M84.8,52.7h5.6c1,0,1.9-0.8,1.9-1.9
	c0-1-0.8-1.9-1.9-1.9h-5.6c-1,0-1.9,0.8-1.9,1.9C82.9,51.9,83.8,52.7,84.8,52.7z M103.4,49h-5.6c-1,0-1.9,0.8-1.9,1.9
	s0.8,1.9,1.9,1.9h5.6c1,0,1.9-0.8,1.9-1.9S104.5,49,103.4,49z M103.4,56.5H96c-1,0-1.9,0.8-1.9,1.9c0,1,0.8,1.9,1.9,1.9h7.4
	c1,0,1.9-0.8,1.9-1.9S104.5,56.5,103.4,56.5z M99.7,71.4H75.5c-1,0-1.9-0.8-1.9-1.9c0-1,0.8-1.9,1.9-1.9h24.2c1,0,1.9,0.8,1.9,1.9
	C101.6,70.5,100.7,71.4,99.7,71.4z M99.7,63.9H75.5c-3.1,0-5.6,2.5-5.6,5.6c0,3.1,2.5,5.6,5.6,5.6h24.2c3.1,0,5.6-2.5,5.6-5.6
	C105.3,66.4,102.8,63.9,99.7,63.9z M103.4,17.4H67c-1.2-3.5-4.1-6.1-7.6-7.1c-3.5-1-7.3-0.1-10.1,2.3l-10-10c-2.2-2.1-5.6-2.1-7.8,0
	c-2,2-2.2,5.2-0.4,7.4c0.8,2.4,0.9,5,0.3,7.5H10.3c-5.1,0-9.3,4.2-9.3,9.3v61.5c0,5.1,4.2,9.3,9.3,9.3h29.8v3.7h-13
	c-1,0-1.9,0.8-1.9,1.9v7.5c0,1,0.8,1.9,1.9,1.9h59.6c1,0,1.9-0.8,1.9-1.9V103c0-1-0.8-1.9-1.9-1.9h-13v-3.7h29.8
	c5.1,0,9.3-4.2,9.3-9.3V26.7C112.7,21.5,108.6,17.4,103.4,17.4z"/>
</svg>
