<?xml version="1.0" encoding="utf-8"?>
<!-- Generator: Adobe Illustrator 19.2.0, SVG Export Plug-In . SVG Version: 6.00 Build 0)  -->
<svg version="1.1" id="Layer_1" xmlns="http://www.w3.org/2000/svg" xmlns:xlink="http://www.w3.org/1999/xlink" x="0px" y="0px"
	 viewBox="0 0 113.7 113.7" style="enable-background:new 0 0 113.7 113.7;" xml:space="preserve">
<path style="fill-rule:evenodd;clip-rule:evenodd;fill:#C7233F;" d="M83.5,110c-10.1,0-19.3-5.9-23.6-15.1c-0.3-0.6-0.6-1.3-0.8-2
	c-0.1-0.2-0.2-0.5-0.3-0.7c-2.7-8.2-1.3-17.1,3.9-24c0.2-0.3,0.5-0.6,0.7-0.9c7.7-9.3,20.8-12.1,31.6-6.7
	c10.8,5.4,16.5,17.5,13.7,29.2C106,101.7,95.6,110,83.5,110z M24.5,81.4c2.2-2.3,4.8-4.3,7.5-6c3,7.1,7.4,13.1,13.2,17.4
	C37.3,91.2,30,87.2,24.5,81.4z M45.1,14C39.4,18.3,34.9,24.3,32,31.4c-2.7-1.7-5.3-3.7-7.5-6C30.1,19.6,37.3,15.6,45.1,14z M82,25.3
	c-2.2,2.3-4.7,4.3-7.4,6c-3-7.1-7.4-13-13.1-17.3C69.3,15.6,76.4,19.5,82,25.3z M93.5,55c0,0.5,0,1-0.1,1.5c-2-0.7-4-1.2-6.1-1.5
	H93.5z M78.8,55h0.9c-0.3,0-0.6,0.1-0.9,0.1V55z M61,65.3c-0.3,0.3-0.5,0.6-0.8,1c-0.1,0.1-0.2,0.2-0.3,0.3c-1.7-0.3-3.4-0.4-5-0.5
	V55h20.6c0,0.3,0,0.6,0,0.9c0,0-0.1,0-0.1,0C69.8,57.5,64.7,60.8,61,65.3L61,65.3z M54.9,77.8v-8.4c1,0,2.1,0.1,3.1,0.2
	C56.6,72.2,55.5,75,54.9,77.8z M51.7,69.4v23.8c-7.6-4-13.4-10.8-16.9-19.4C40,71.1,45.8,69.6,51.7,69.4z M54.9,90.1
	c0.2,0.9,0.4,1.8,0.7,2.6c-0.2,0.1-0.5,0.3-0.7,0.4V90.1z M31,55h20.6v11.2c-6.3,0.2-12.4,1.8-18,4.6C32,65.7,31.2,60.4,31,55z
	 M51.7,40.6v11.2H31c0.1-5.4,1-10.7,2.6-15.8C39.3,38.8,45.4,40.4,51.7,40.6L51.7,40.6z M51.7,37.4C45.8,37.1,40,35.6,34.8,33
	c3.5-8.6,9.3-15.3,16.9-19.4V37.4z M54.9,37.4V13.6c7.6,4,13.4,10.7,16.9,19.3C66.5,35.6,60.8,37.1,54.9,37.4z M75.5,51.8H54.9V40.6
	c6.3-0.2,12.4-1.8,18-4.6C74.6,41.1,75.4,46.4,75.5,51.8z M84.2,27.6c5.7,6.8,8.9,15.3,9.3,24.1H78.8c-0.2-6.3-1.2-12.1-3-17.4
	C78.9,32.5,81.7,30.2,84.2,27.6z M30.8,34.4c-1.9,5.6-2.9,11.4-3,17.3H13.1c0.3-8.8,3.6-17.2,9.2-24C24.8,30.3,27.7,32.6,30.8,34.4z
	 M22.3,79c-5.6-6.8-8.9-15.2-9.2-24h14.7c0.2,6.2,1.2,12.1,3,17.3C27.7,74.2,24.8,76.4,22.3,79z M4.2,53.7c0-0.7,0-1.4,0.1-2.1
	l-3.2-0.2C1,52.2,1,53,1,53.7c0,0.4,0,0.8,0,1.2l3.2-0.1C4.2,54.5,4.2,54.1,4.2,53.7z M10.2,76.1l-2.9,1.5c0.7,1.4,1.5,2.8,2.4,4.1
	l2.7-1.7C11.7,78.7,10.9,77.4,10.2,76.1z M12.5,85.6c1,1.3,2,2.5,3,3.6l2.4-2.2c-1-1.1-2-2.3-2.9-3.4L12.5,85.6z M6.8,67.9l-3.1,1
	c0.5,1.5,1.1,3,1.7,4.4l3-1.3C7.7,70.7,7.2,69.3,6.8,67.9z M4.7,59.2l-3.2,0.5c0.2,1.4,0.5,2.9,0.9,4.6l3.1-0.7
	C5.1,62,4.9,60.5,4.7,59.2z M51.2,103c-5.3-0.3-10.5-1.4-15.4-3.4c-2.1-0.8-4.1-1.8-6.1-2.9c-0.7-0.4-1.4-0.8-2.1-1.3
	c-0.3-0.2-0.7-0.4-1-0.7c-1.4-1-2.8-2.1-4.2-3.2L20.4,94c1.4,1.2,2.9,2.4,4.5,3.4c0.3,0.2,0.7,0.5,1.1,0.7c0.7,0.5,1.4,0.9,2.2,1.3
	c2.1,1.2,4.2,2.3,6.5,3.2c5.2,2.1,10.8,3.3,16.4,3.6c1.1,0.1,2.6,0.1,3.9,0.1h0.6l0-3.2C54.1,103.1,52.3,103.1,51.2,103z M11.7,25
	h7.4v-3.2h-3.5c4.4-5,9.6-9.1,15.5-12.2c8.1-4.3,16.9-6.3,25.5-5.8c16.8,0.9,27.6,9.4,33.7,16.4c7.8,8.8,12.6,20.4,13.1,31.7
	c0.1,1.5,0,2.9,0,4.3l3.2,0.2c0.1-1.6,0.1-3.1,0-4.7c-0.5-12-5.6-24.3-13.9-33.7c-4.3-5-9.6-9-15.5-12C71,2.8,64.1,0.9,56.9,0.6
	C47.7,0,38.3,2.2,29.7,6.7C23.5,10,18,14.3,13.4,19.5v-3.6h-3.2v7.5c0,0.4,0.2,0.8,0.5,1.1C10.9,24.9,11.3,25,11.7,25z M97.2,83.7
	c-0.3,0.3-0.6,0.5-1,0.6l0-5c0.4,0.1,0.8,0.3,1,0.6c0.5,0.5,0.8,1.2,0.8,1.9C98,82.6,97.7,83.2,97.2,83.7z M80.2,87.1l0-9.9L92.9,72
	L93,92.1L80.2,87.1z M76.2,94.8c0.1,0.5,0,0.9-0.3,1.3c-0.3,0.4-0.7,0.6-1.2,0.6c-0.7,0-1.3-0.5-1.5-1.1l-1.6-5.8l3.1,0L76.2,94.8z
	 M70.6,77.7l6.4,0l0,8.8l-6.4,0c-0.9,0-1.6-0.7-1.6-1.6l0-5.7C69,78.4,69.7,77.7,70.6,77.7z M96.1,76.1l0-6.4c0-0.5-0.3-1-0.7-1.3
	c-0.4-0.3-1-0.4-1.5-0.2l-15.7,6.3l-7.7,0c-1.3,0-2.5,0.5-3.4,1.4c-0.9,0.9-1.4,2.1-1.4,3.4l0,5.7c0,1.7,0.9,3.3,2.4,4.1l2,7.3
	c0.6,2,2.4,3.5,4.6,3.5h0c1.5,0,2.9-0.7,3.8-1.9c0.9-1.2,1.2-2.7,0.8-4.1l-1.2-4.2h0.1L94,96c0.2,0.1,0.4,0.1,0.6,0.1
	c0.3,0,0.6-0.1,0.9-0.3c0.4-0.3,0.7-0.8,0.7-1.3l0-6.8c1.3-0.2,2.4-0.8,3.3-1.7c1.1-1.1,1.7-2.6,1.7-4.1c0-1.6-0.6-3-1.7-4.1
	C98.6,76.8,97.4,76.2,96.1,76.1z M108.2,68.4c-2.9-4.5-6.9-8.2-11.7-10.6c0.1-1.5,0.2-2.9,0.2-4.4c0-24-19.5-43.5-43.5-43.5
	S9.8,29.4,9.8,53.4c0,24,19.5,43.5,43.5,43.5c1.3,0,2.6-0.1,3.9-0.2c4.9,10.1,15.1,16.5,26.3,16.5c16.1,0,29.2-13.1,29.2-29.2
	C112.7,78.5,111.2,73.1,108.2,68.4z"/>
</svg>
