<?xml version="1.0" encoding="utf-8"?>
<!-- Generator: Adobe Illustrator 19.2.0, SVG Export Plug-In . SVG Version: 6.00 Build 0)  -->
<svg version="1.1" id="Layer_1" xmlns="http://www.w3.org/2000/svg" xmlns:xlink="http://www.w3.org/1999/xlink" x="0px" y="0px"
	 viewBox="0 0 113.7 113.7" style="enable-background:new 0 0 113.7 113.7;" xml:space="preserve">
<path style="fill-rule:evenodd;clip-rule:evenodd;fill:#C7233F;" d="M108,13.2H96.8v-1.9c0-3.1,2.5-5.6,5.6-5.6
	c3.1,0,5.6,2.5,5.6,5.6V13.2z M98.7,47.5l3,3L75.4,76.7l-3.9,1l1-3.9L98.7,47.5z M102.8,43.4c0.8-0.8,2.1-0.8,3,0
	c0.8,0.8,0.8,2.1,0,3l-1.5,1.5l-3-3L102.8,43.4z M93.1,104.4c0,3.1-2.5,5.6-5.6,5.6c-3.1,0-5.6-2.5-5.6-5.6v-3.7
	c0-1-0.8-1.9-1.9-1.9H18.6V11.3c0-3.1,2.5-5.6,5.6-5.6H95c-0.1,0.1-0.1,0.2-0.1,0.2c-0.1,0.2-0.2,0.3-0.3,0.5
	c-0.2,0.3-0.4,0.6-0.5,1c-0.1,0.2-0.2,0.4-0.2,0.5c-0.1,0.4-0.3,0.7-0.3,1.1c0,0.2-0.1,0.3-0.1,0.5c-0.1,0.6-0.2,1.1-0.2,1.7v36.5
	L69.5,71.5C69.2,71.7,69,72,69,72.3l-1.9,7.4c-0.2,0.6,0,1.3,0.5,1.8c0.2,0.2,0.3,0.3,0.5,0.4c0,0,0.1,0,0.1,0.1
	c0.2,0.1,0.4,0.1,0.6,0.1l0,0c0.2,0,0.3,0,0.4-0.1l7.5-1.9c0.3-0.1,0.6-0.3,0.9-0.5l15.4-15.4V104.4z M9.3,110
	c-3.1,0-5.6-2.5-5.6-5.6v-1.9h74.5v1.9c0,0.6,0.1,1.2,0.2,1.7c0,0.2,0.1,0.3,0.1,0.5c0.1,0.4,0.2,0.8,0.3,1.1
	c0.1,0.2,0.2,0.4,0.2,0.5c0.2,0.3,0.3,0.7,0.5,1c0.1,0.2,0.2,0.3,0.3,0.5c0.1,0.1,0.1,0.2,0.1,0.2H9.3z M35.4,16.9h41v-3.7h-41V16.9
	z M35.4,33.7h-5.6v-5.6h4.8l-2.4,2.4l2.6,2.6l0.5-0.5V33.7z M41.5,21.2l-3.4,3.4c-0.3-0.1-0.6-0.2-0.9-0.2h-9.3
	c-1,0-1.9,0.8-1.9,1.9v9.3c0,1,0.8,1.9,1.9,1.9h9.3c1,0,1.9-0.8,1.9-1.9v-6.7l5-5L41.5,21.2z M46.6,28.1h39.1v-3.7H46.6V28.1z
	 M46.6,35.5h31.7v-3.7H46.6V35.5z M35.4,52.3h-5.6v-5.6h4.8l-2.4,2.4l2.6,2.6l0.5-0.5V52.3z M41.5,39.8l-3.4,3.4
	c-0.3-0.1-0.6-0.2-0.9-0.2h-9.3c-1,0-1.9,0.8-1.9,1.9v9.3c0,1,0.8,1.9,1.9,1.9h9.3c1,0,1.9-0.8,1.9-1.9v-6.7l5-5L41.5,39.8z
	 M46.6,46.7h39.1V43H46.6V46.7z M46.6,54.1h31.7v-3.7H46.6V54.1z M35.4,70.9h-5.6v-5.6h4.8l-2.4,2.4l2.6,2.6l0.5-0.5V70.9z
	 M41.5,58.4l-3.4,3.4c-0.3-0.1-0.6-0.2-0.9-0.2l-9.3,0c-1,0-1.9,0.8-1.9,1.9v9.3c0,1,0.8,1.9,1.9,1.9h9.3c1,0,1.9-0.8,1.9-1.9v-6.7
	l5-5L41.5,58.4z M46.6,65.3h24.2v-3.7H46.6V65.3z M46.6,72.8h16.8V69H46.6V72.8z M35.4,89.5h-5.6v-5.6h4.8l-2.4,2.4l2.6,2.6l0.5-0.5
	V89.5z M41.5,77l-3.4,3.4c-0.3-0.1-0.6-0.2-0.9-0.2h-9.3c-1,0-1.9,0.8-1.9,1.9v9.3c0,1,0.8,1.9,1.9,1.9h9.3c1,0,1.9-0.8,1.9-1.9
	v-6.7l5-5L41.5,77z M46.6,83.9h16.8v-3.7H46.6V83.9z M46.6,91.4h31.7v-3.7H46.6V91.4z M102.4,2H24.2c-5.1,0-9.3,4.2-9.3,9.3v87.5
	h-13c-1,0-1.9,0.8-1.9,1.9v3.7c0,5.1,4.2,9.3,9.3,9.3h78.2c5.1,0,9.3-4.2,9.3-9.3V60.5l11.6-11.6c2.3-2.3,2.3-5.9,0-8.2
	c-2.3-2.3-6-2.3-8.2,0l-3.3,3.3V16.9h13c1,0,1.9-0.8,1.9-1.9v-3.7C111.7,6.2,107.6,2,102.4,2z"/>
</svg>
