<?xml version="1.0" encoding="utf-8"?>
<!-- Generator: Adobe Illustrator 19.2.0, SVG Export Plug-In . SVG Version: 6.00 Build 0)  -->
<svg version="1.1" id="Layer_1" xmlns="http://www.w3.org/2000/svg" xmlns:xlink="http://www.w3.org/1999/xlink" x="0px" y="0px"
	 viewBox="0 0 113.7 113.7" style="enable-background:new 0 0 113.7 113.7;" xml:space="preserve">
<path style="fill-rule:evenodd;clip-rule:evenodd;fill:#C7233F;" d="M80.7,45.3c-0.4-0.4-1-0.6-1.5-0.6c-0.6,0-1.1,0.2-1.5,0.6
	c-0.4,0.4-0.6,1-0.6,1.5s0.2,1.1,0.6,1.5c0.4,0.4,1,0.6,1.5,0.6c0.6,0,1.1-0.2,1.5-0.6c0.4-0.4,0.6-1,0.6-1.5S81.1,45.7,80.7,45.3
	 M58.4,11c-0.4-0.4-1-0.6-1.5-0.6c-0.6,0-1.1,0.2-1.5,0.6c-0.4,0.4-0.6,1-0.6,1.5c0,0.6,0.2,1.1,0.6,1.5c0.4,0.4,1,0.6,1.5,0.6
	c0.6,0,1.1-0.2,1.5-0.6c0.4-0.4,0.6-1,0.6-1.5C59.1,12,58.8,11.4,58.4,11z M69.9,44.6H56.9c-1.2,0-2.2,1-2.2,2.2
	c0,1.2,1,2.2,2.2,2.2h13.1c1.2,0,2.2-1,2.2-2.2C72.1,45.6,71.1,44.6,69.9,44.6z M88.3,57.7H56.9c-1.2,0-2.2,1-2.2,2.2
	c0,1.2,1,2.2,2.2,2.2h31.4c1.2,0,2.2-1,2.2-2.2C90.5,58.7,89.5,57.7,88.3,57.7z M80.7,68.9c-0.4-0.4-1-0.6-1.5-0.6
	c-0.6,0-1.1,0.2-1.5,0.6c-0.4,0.4-0.6,1-0.6,1.5c0,0.6,0.2,1.1,0.6,1.5c0.4,0.4,1,0.6,1.5,0.6c0.6,0,1.1-0.2,1.5-0.6
	c0.4-0.4,0.6-1,0.6-1.5C81.3,69.8,81.1,69.3,80.7,68.9z M69.9,68.2H56.9c-1.2,0-2.2,1-2.2,2.2c0,1.2,1,2.2,2.2,2.2h13.1
	c1.2,0,2.2-1,2.2-2.2C72.1,69.2,71.1,68.2,69.9,68.2z M88.3,81.3H56.9c-1.2,0-2.2,1-2.2,2.2c0,1.2,1,2.2,2.2,2.2h31.4
	c1.2,0,2.2-1,2.2-2.2C90.5,82.3,89.5,81.3,88.3,81.3z M80.7,92.4c-0.4-0.4-1-0.6-1.5-0.6c-0.6,0-1.1,0.2-1.5,0.6
	c-0.4,0.4-0.6,1-0.6,1.5c0,0.6,0.2,1.1,0.6,1.5c0.4,0.4,1,0.6,1.5,0.6c0.6,0,1.1-0.2,1.5-0.6c0.4-0.4,0.6-1,0.6-1.5
	C81.3,93.4,81.1,92.8,80.7,92.4z M69.9,91.8H56.9c-1.2,0-2.2,1-2.2,2.2c0,1.2,1,2.2,2.2,2.2h13.1c1.2,0,2.2-1,2.2-2.2
	C72.1,92.8,71.1,91.8,69.9,91.8z M98.8,102.1c0,3.5-2.8,6.3-6.3,6.3H21.2c-3.5,0-6.3-2.8-6.3-6.3V20.2c0-3.5,2.8-6.3,6.3-6.3h13.6
	c-0.7,1.6-1.1,3.4-1.1,5.3v1.4c0,1.2,1,2.2,2.2,2.2h41.9c1.2,0,2.2-1,2.2-2.2v-1.4c0-1.9-0.4-3.7-1.1-5.3h13.6
	c3.5,0,6.3,2.8,6.3,6.3V102.1z M47.2,10.2h3.4c1,0,1.8-0.7,2.1-1.6c0.5-1.9,2.3-3.2,4.2-3.2c2,0,3.7,1.3,4.2,3.2
	c0.3,0.9,1.1,1.6,2.1,1.6h3.4c4.7,0,8.6,3.7,9,8.3H38.1C38.5,13.8,42.4,10.2,47.2,10.2z M92.5,9.5H75.8c-2.4-2.3-5.7-3.7-9.3-3.7
	h-1.9C63.2,2.9,60.2,1,56.9,1c-3.3,0-6.3,1.9-7.8,4.8h-1.9c-3.6,0-6.8,1.4-9.3,3.7H21.2c-5.9,0-10.6,4.8-10.6,10.6v81.9
	c0,5.9,4.8,10.6,10.6,10.6h71.3c5.9,0,10.6-4.8,10.6-10.6V20.2C103.1,14.3,98.4,9.5,92.5,9.5z M43,33.6c-0.9-0.9-2.2-0.9-3.1,0
	L30.6,43l-2.9-2.9c-0.9-0.9-2.2-0.9-3.1,0c-0.9,0.9-0.9,2.2,0,3.1l4.4,4.4c0.4,0.4,1,0.6,1.5,0.6c0.6,0,1.1-0.2,1.5-0.6L43,36.7
	C43.8,35.9,43.8,34.5,43,33.6z M35.5,91.8h-6.1v-6.1h6.1V91.8z M37.7,81.3H27.2c-1.2,0-2.2,1-2.2,2.2V94c0,1.2,1,2.2,2.2,2.2h10.5
	c1.2,0,2.2-1,2.2-2.2V83.5C39.8,82.3,38.9,81.3,37.7,81.3z M35.5,68.2h-6.1v-6.1h6.1V68.2z M37.7,57.7H27.2c-1.2,0-2.2,1-2.2,2.2
	v10.5c0,1.2,1,2.2,2.2,2.2h10.5c1.2,0,2.2-1,2.2-2.2V59.9C39.8,58.7,38.9,57.7,37.7,57.7z M88.3,34.2H56.9c-1.2,0-2.2,1-2.2,2.2
	c0,1.2,1,2.2,2.2,2.2h31.4c1.2,0,2.2-1,2.2-2.2C90.5,35.1,89.5,34.2,88.3,34.2z"/>
</svg>
