<?xml version="1.0" encoding="UTF-8"?>
<!DOCTYPE svg PUBLIC "-//W3C//DTD SVG 1.1//EN" "http://www.w3.org/Graphics/SVG/1.1/DTD/svg11.dtd">
<!-- Creator: CorelDRAW X7 -->
<svg xmlns="http://www.w3.org/2000/svg" xml:space="preserve" width="43.4798mm" height="13.3174mm" version="1.1" style="shape-rendering:geometricPrecision; text-rendering:geometricPrecision; image-rendering:optimizeQuality; fill-rule:evenodd; clip-rule:evenodd"
viewBox="0 0 4348 1332"
 xmlns:xlink="http://www.w3.org/1999/xlink">
 <defs>
  <style type="text/css">
   <![CDATA[
    .fil1 {fill:#FEFEFE}
    .fil0 {fill:#FEFEFE;fill-rule:nonzero}
   ]]>
  </style>
 </defs>
 <g id="Layer_x0020_1">
  <metadata id="CorelCorpID_0Corel-Layer"/>
  <path class="fil0" d="M168 0l4012 0c46,0 88,19 119,49l0 0c30,31 49,73 49,119l0 996c0,46 -19,88 -49,118 -31,31 -73,50 -119,50l-4012 0c-46,0 -88,-19 -119,-50 -30,-30 -49,-72 -49,-118l0 -996c0,-46 19,-88 49,-119l0 0c31,-30 73,-49 119,-49zm4012 35l-4012 0c-36,0 -70,15 -94,39l0 0c-24,24 -39,58 -39,94l0 996c0,36 15,69 39,93 24,25 58,39 94,39l4012 0c36,0 70,-14 94,-39 24,-24 39,-57 39,-93l0 -996c0,-36 -15,-70 -39,-94l0 0c-24,-24 -58,-39 -94,-39z"/>
  <path class="fil0" d="M1565 456l0 -214 74 0c17,0 29,1 38,3 13,3 23,8 32,15 11,10 20,22 25,37 6,15 9,32 9,51 0,16 -2,31 -6,43 -4,13 -9,23 -15,31 -6,9 -12,15 -19,20 -7,5 -16,8 -26,11 -10,2 -22,3 -35,3l-77 0zm28 -25l46 0c14,0 26,-1 34,-4 8,-2 14,-6 19,-11 7,-7 12,-16 16,-27 3,-11 5,-25 5,-41 0,-23 -3,-40 -11,-52 -7,-12 -16,-20 -27,-24 -7,-3 -20,-5 -36,-5l-46 0 0 164zm176 -52c0,-29 8,-50 24,-64 13,-12 29,-17 49,-17 21,0 38,7 52,21 14,14 20,33 20,57 0,20 -3,36 -9,47 -6,12 -14,21 -26,27 -11,6 -24,10 -37,10 -22,0 -40,-7 -53,-21 -14,-14 -20,-34 -20,-60zm27 0c0,20 4,34 13,44 8,10 19,15 33,15 13,0 24,-5 32,-15 9,-10 13,-25 13,-45 0,-19 -4,-34 -13,-44 -9,-10 -19,-14 -32,-14 -14,0 -25,4 -33,14 -9,10 -13,25 -13,45zm177 77l-47 -155 28 0 25 90 9 33c0,-2 3,-12 8,-32l24 -91 27 0 24 90 8 30 9 -30 26 -90 26 0 -49 155 -27 0 -25 -93 -6 -26 -32 119 -28 0zm189 0l0 -155 24 0 0 22c11,-17 28,-25 49,-25 10,0 18,1 26,5 8,3 14,7 18,13 4,5 7,12 8,19 1,5 2,14 2,26l0 95 -27 0 0 -94c0,-11 -1,-19 -3,-24 -2,-5 -6,-10 -11,-13 -5,-3 -11,-5 -18,-5 -11,0 -21,4 -29,11 -8,7 -12,21 -12,41l0 84 -27 0zm167 0l0 -214 26 0 0 214 -26 0zm57 -77c0,-29 8,-50 24,-64 13,-12 30,-17 49,-17 21,0 39,7 53,21 13,14 20,33 20,57 0,20 -3,36 -9,47 -6,12 -15,21 -26,27 -12,6 -24,10 -38,10 -22,0 -39,-7 -53,-21 -13,-14 -20,-34 -20,-60zm27 0c0,20 4,34 13,44 9,10 20,15 33,15 13,0 24,-5 33,-15 9,-10 13,-25 13,-45 0,-19 -5,-34 -13,-44 -9,-10 -20,-14 -33,-14 -13,0 -24,4 -33,14 -9,10 -13,25 -13,45zm252 58c-10,8 -20,14 -29,17 -9,4 -18,6 -29,6 -17,0 -30,-5 -39,-13 -10,-8 -14,-19 -14,-32 0,-7 2,-14 5,-21 4,-6 8,-11 14,-15 5,-3 12,-6 19,-8 5,-2 13,-3 23,-4 22,-3 37,-6 47,-9 1,-4 1,-6 1,-7 0,-11 -3,-18 -8,-23 -7,-6 -17,-8 -30,-8 -13,0 -22,2 -28,6 -6,4 -10,12 -13,23l-26 -3c3,-11 7,-20 12,-27 5,-7 13,-12 23,-16 11,-3 22,-5 36,-5 13,0 24,1 32,4 9,3 15,7 19,12 4,5 6,11 8,18 1,5 1,13 1,24l0 35c0,25 1,40 2,47 1,6 3,12 6,18l-27 0c-3,-5 -5,-12 -5,-19zm-2 -59c-10,4 -24,8 -44,10 -11,2 -18,4 -23,6 -4,2 -8,4 -10,8 -3,4 -4,8 -4,13 0,6 3,12 8,17 5,5 13,7 24,7 10,0 19,-2 27,-7 8,-4 13,-10 17,-18 3,-6 4,-14 4,-26l1 -10zm167 78l0 -19c-9,15 -24,23 -43,23 -12,0 -24,-4 -34,-11 -11,-6 -19,-16 -24,-28 -6,-12 -9,-26 -9,-42 0,-16 3,-30 8,-42 5,-13 13,-23 23,-29 10,-7 22,-10 35,-10 9,0 17,2 25,6 7,4 13,9 18,15l0 -77 26 0 0 214 -25 0zm-83 -77c0,20 4,34 13,44 8,10 18,15 29,15 12,0 22,-5 30,-14 8,-9 12,-24 12,-43 0,-21 -4,-37 -12,-47 -9,-10 -19,-14 -31,-14 -11,0 -21,4 -29,14 -8,9 -12,24 -12,45zm223 0c0,-29 8,-50 24,-64 14,-12 30,-17 49,-17 22,0 39,7 53,21 13,14 20,33 20,57 0,20 -3,36 -9,47 -6,12 -14,21 -26,27 -11,6 -24,10 -38,10 -21,0 -39,-7 -52,-21 -14,-14 -21,-34 -21,-60zm27 0c0,20 5,34 13,44 9,10 20,15 33,15 14,0 24,-5 33,-15 9,-10 13,-25 13,-45 0,-19 -4,-34 -13,-44 -9,-10 -20,-14 -33,-14 -13,0 -24,4 -33,14 -8,10 -13,25 -13,45zm150 77l0 -155 24 0 0 22c11,-17 28,-25 49,-25 10,0 18,1 26,5 8,3 14,7 18,13 4,5 7,12 8,19 1,5 2,14 2,26l0 95 -27 0 0 -94c0,-11 -1,-19 -3,-24 -2,-5 -6,-10 -11,-13 -5,-3 -11,-5 -18,-5 -11,0 -21,4 -29,11 -8,7 -12,21 -12,41l0 84 -27 0zm308 -23l4 23c-8,2 -14,2 -20,2 -10,0 -17,-1 -23,-4 -5,-3 -8,-7 -11,-12 -2,-5 -3,-15 -3,-31l0 -90 -19 0 0 -20 19 0 0 -38 27 -16 0 54 26 0 0 20 -26 0 0 91c0,8 0,13 1,15 1,2 2,4 4,5 3,1 6,2 10,2 2,0 6,-1 11,-1zm26 23l0 -214 26 0 0 77c13,-14 28,-21 47,-21 11,0 21,2 30,6 8,5 14,11 18,19 4,8 5,20 5,35l0 98 -26 0 0 -98c0,-13 -3,-23 -8,-29 -6,-6 -14,-9 -25,-9 -7,0 -15,2 -21,6 -7,4 -12,10 -15,17 -3,7 -5,16 -5,28l0 85 -26 0zm273 -50l28 4c-5,15 -13,28 -24,36 -12,9 -27,14 -45,14 -22,0 -40,-7 -54,-21 -13,-14 -20,-34 -20,-59 0,-26 7,-46 21,-61 13,-14 30,-21 52,-21 21,0 38,7 51,21 13,14 20,34 20,59 0,2 0,4 -1,7l-116 0c1,17 6,30 15,39 9,9 19,14 32,14 10,0 18,-3 25,-8 7,-5 12,-13 16,-24zm-86 -42l87 0c-2,-13 -5,-23 -10,-30 -9,-10 -20,-15 -33,-15 -12,0 -22,4 -30,12 -9,8 -13,19 -14,33zm-2129 644l149 -387 56 0 158 387 -58 0 -45 -118 -163 0 -42 118 -55 0zm112 -159l132 0 -40 -108c-13,-32 -22,-59 -28,-80 -6,25 -13,50 -22,74l-42 114zm286 266l0 -388 44 0 0 37c10,-14 21,-25 34,-32 13,-7 29,-11 47,-11 24,0 45,6 64,19 18,12 32,29 41,52 10,22 14,47 14,73 0,29 -5,55 -15,78 -10,22 -26,40 -45,52 -20,12 -41,19 -62,19 -16,0 -30,-4 -43,-10 -13,-7 -23,-15 -31,-26l0 137 -48 0zm44 -246c0,36 7,63 21,80 15,17 33,26 54,26 21,0 39,-9 54,-27 15,-18 22,-46 22,-83 0,-36 -7,-62 -22,-80 -14,-18 -32,-27 -52,-27 -21,0 -38,10 -54,29 -16,19 -23,46 -23,82zm258 246l0 -388 43 0 0 37c10,-14 22,-25 35,-32 13,-7 28,-11 47,-11 24,0 45,6 63,19 18,12 32,29 42,52 9,22 14,47 14,73 0,29 -5,55 -16,78 -10,22 -25,40 -45,52 -19,12 -40,19 -62,19 -16,0 -30,-4 -42,-10 -13,-7 -23,-15 -32,-26l0 137 -47 0zm43 -246c0,36 7,63 22,80 15,17 32,26 53,26 21,0 39,-9 54,-27 15,-18 23,-46 23,-83 0,-36 -7,-62 -22,-80 -15,-18 -32,-27 -53,-27 -20,0 -38,10 -53,29 -16,19 -24,46 -24,82zm398 14l48 -4c3,19 8,35 16,48 9,12 22,22 39,30 18,8 38,12 60,12 20,0 37,-3 52,-9 15,-6 26,-14 33,-24 8,-10 11,-21 11,-33 0,-12 -3,-23 -10,-32 -7,-9 -19,-17 -35,-23 -11,-4 -34,-10 -69,-19 -36,-8 -61,-16 -75,-24 -19,-9 -33,-22 -42,-36 -9,-14 -13,-30 -13,-48 0,-20 5,-38 16,-55 12,-17 28,-30 49,-39 21,-8 45,-13 71,-13 29,0 54,5 76,14 22,9 39,23 51,41 12,18 18,38 19,61l-49 4c-3,-25 -12,-43 -27,-56 -15,-12 -38,-18 -68,-18 -31,0 -53,5 -68,17 -14,11 -21,25 -21,41 0,14 5,25 15,34 10,9 36,18 78,28 41,9 70,17 86,24 22,10 39,24 49,40 11,15 17,34 17,54 0,21 -6,40 -18,59 -12,18 -29,32 -51,42 -22,10 -47,15 -75,15 -35,0 -64,-5 -88,-15 -24,-10 -42,-26 -56,-46 -13,-21 -20,-44 -21,-70zm476 82l7 42c-14,3 -26,4 -36,4 -18,0 -31,-2 -40,-8 -10,-5 -17,-12 -21,-21 -3,-9 -5,-28 -5,-57l0 -161 -36 0 0 -37 36 0 0 -69 47 -29 0 98 48 0 0 37 -48 0 0 164c0,14 1,23 3,26 2,4 4,7 8,10 4,2 9,3 16,3 6,0 13,-1 21,-2zm29 -98c0,-51 15,-90 44,-115 24,-20 53,-31 88,-31 39,0 70,13 95,38 24,25 37,60 37,104 0,36 -6,65 -16,85 -11,21 -27,37 -48,48 -21,12 -43,18 -68,18 -39,0 -71,-13 -95,-38 -25,-25 -37,-61 -37,-109zm49 0c0,36 8,63 24,81 15,18 35,27 59,27 24,0 44,-9 59,-27 16,-18 24,-45 24,-82 0,-35 -8,-61 -24,-79 -16,-17 -35,-26 -59,-26 -24,0 -44,8 -59,26 -16,18 -24,45 -24,80zm270 141l0 -281 43 0 0 43c11,-20 21,-33 30,-39 10,-7 20,-10 31,-10 16,0 32,5 49,15l-17 44c-11,-6 -23,-10 -35,-10 -10,0 -19,4 -28,10 -8,6 -14,15 -17,26 -5,16 -8,35 -8,55l0 147 -48 0zm373 -91l50 6c-8,29 -23,51 -43,67 -21,16 -48,24 -81,24 -41,0 -73,-13 -97,-38 -24,-25 -36,-61 -36,-106 0,-47 12,-84 36,-110 24,-26 56,-39 95,-39 37,0 68,13 91,38 24,26 36,62 36,108 0,3 0,7 0,13l-210 0c2,30 11,54 27,70 15,16 35,25 58,25 18,0 33,-5 45,-14 12,-9 22,-24 29,-44zm-156 -76l157 0c-2,-24 -8,-42 -18,-53 -15,-19 -35,-28 -59,-28 -22,0 -40,7 -55,22 -15,15 -23,34 -25,59z"/>
  <path class="fil1" d="M983 813c-27,-38 -40,-80 -40,-128 0,-43 12,-82 37,-118 14,-20 35,-42 66,-68 -20,-24 -40,-43 -60,-57 -36,-25 -77,-37 -122,-37 -27,0 -60,6 -99,19 -38,13 -65,20 -82,20 -13,0 -39,-6 -79,-18 -40,-11 -74,-17 -101,-17 -66,0 -120,28 -163,83 -43,55 -65,127 -65,214 0,92 28,188 84,288 57,99 115,149 173,149 19,0 44,-7 75,-20 31,-13 58,-19 82,-19 25,0 53,6 86,18 35,13 62,19 80,19 49,0 98,-38 148,-113 32,-47 55,-95 70,-143 -34,-10 -64,-34 -90,-72zm-195 -443c24,-24 42,-50 53,-79 11,-28 17,-54 17,-78 0,-1 0,-3 -1,-5 0,-3 0,-5 0,-6 0,-1 -1,-3 -1,-6 -1,-3 -1,-6 -2,-7 -67,16 -115,44 -143,85 -29,41 -44,90 -45,147 26,-2 46,-5 60,-9 21,-7 41,-21 62,-42z"/>
 </g>
</svg>
