<?xml version="1.0" encoding="utf-8"?>
<!-- Generator: Adobe Illustrator 19.2.0, SVG Export Plug-In . SVG Version: 6.00 Build 0)  -->
<svg version="1.1" id="Capa_1" xmlns="http://www.w3.org/2000/svg" xmlns:xlink="http://www.w3.org/1999/xlink" x="0px" y="0px"
	 viewBox="0 0 100 300" style="enable-background:new 0 0 100 300;" xml:space="preserve">
<style type="text/css">
	.st0{fill:#FFFFFF;}
	.st1{fill:#B21A34;}
</style>
<g>
	<path d="M82,175.8H34.5c-2,0-3.5-1.6-3.5-3.5c0-2,1.6-3.5,3.5-3.5H82c2,0,3.5,1.6,3.5,3.5C85.5,174.2,83.9,175.8,82,175.8z"/>
	<path d="M82,153.5H34.5c-2,0-3.5-1.6-3.5-3.5s1.6-3.5,3.5-3.5H82c2,0,3.5,1.6,3.5,3.5C85.5,152,83.9,153.5,82,153.5z"/>
	<path d="M82,131.3H34.5c-2,0-3.5-1.6-3.5-3.5c0-2,1.6-3.5,3.5-3.5H82c2,0,3.5,1.6,3.5,3.5C85.5,129.7,83.9,131.3,82,131.3z"/>
	<circle cx="19.3" cy="128" r="4.8"/>
	<circle cx="19.3" cy="150" r="4.8"/>
	<circle cx="19.3" cy="172" r="4.8"/>
</g>
<g>
	<g>
		<path class="st0" d="M82,75.8H34.5c-2,0-3.5-1.6-3.5-3.5s1.6-3.5,3.5-3.5H82c2,0,3.5,1.6,3.5,3.5S83.9,75.8,82,75.8z"/>
		<path class="st0" d="M82,53.5H34.5c-2,0-3.5-1.6-3.5-3.5s1.6-3.5,3.5-3.5H82c2,0,3.5,1.6,3.5,3.5C85.5,52,83.9,53.5,82,53.5z"/>
		<path class="st0" d="M82,31.3H34.5c-2,0-3.5-1.6-3.5-3.5s1.6-3.5,3.5-3.5H82c2,0,3.5,1.6,3.5,3.5S83.9,31.3,82,31.3z"/>
		<circle class="st0" cx="19.3" cy="28" r="4.8"/>
		<circle class="st0" cx="19.3" cy="50" r="4.8"/>
		<circle class="st0" cx="19.3" cy="72" r="4.8"/>
	</g>
</g>
<g>
	<g>
		<path class="st1" d="M82,275.8H34.5c-2,0-3.5-1.6-3.5-3.5s1.6-3.5,3.5-3.5H82c2,0,3.5,1.6,3.5,3.5S83.9,275.8,82,275.8z"/>
		<path class="st1" d="M82,253.5H34.5c-2,0-3.5-1.6-3.5-3.5s1.6-3.5,3.5-3.5H82c2,0,3.5,1.6,3.5,3.5C85.5,252,83.9,253.5,82,253.5z"
			/>
		<path class="st1" d="M82,231.3H34.5c-2,0-3.5-1.6-3.5-3.5s1.6-3.5,3.5-3.5H82c2,0,3.5,1.6,3.5,3.5S83.9,231.3,82,231.3z"/>
		<circle class="st1" cx="19.3" cy="228" r="4.8"/>
		<circle class="st1" cx="19.3" cy="250" r="4.8"/>
		<circle class="st1" cx="19.3" cy="272" r="4.8"/>
	</g>
</g>
</svg>
