<?xml version="1.0" encoding="utf-8"?>
<!-- Generator: Adobe Illustrator 19.2.0, SVG Export Plug-In . SVG Version: 6.00 Build 0)  -->
<svg version="1.1" id="Capa_1" xmlns="http://www.w3.org/2000/svg" xmlns:xlink="http://www.w3.org/1999/xlink" x="0px" y="0px"
	 viewBox="0 0 100 300" style="enable-background:new 0 0 100 300;" xml:space="preserve">
<style type="text/css">
	.st0{fill:#FFFFFF;}
	.st1{fill:#B21A34;}
</style>
<g>
	<g>
		<g>
			<g>
				<polygon points="66.9,136.2 60,136 58.5,177.1 65.4,177.3 				"/>
				<rect x="46.5" y="136.1" width="6.9" height="41.1"/>
				<polygon points="41.5,177.1 40,136 33.1,136.2 34.6,177.3 				"/>
				<path d="M8.7,119v6.9h7.2l5.7,65.3c0.2,1.8,1.7,3.2,3.5,3.2h49.7c1.8,0,3.3-1.4,3.5-3.2l5.7-65.2h7.4V119H8.7z M71.6,187.4H28.3
					l-5.4-61.5H77L71.6,187.4z"/>
			</g>
		</g>
	</g>
	<g>
		<g>
			<path d="M61.3,105.7H38.7c-3.2,0-5.8,2.6-5.8,5.8v11h6.9v-9.8h20.4v9.8h6.9v-11C67.1,108.3,64.5,105.7,61.3,105.7z"/>
		</g>
	</g>
</g>
<g>
	<g>
		<g>
			<g>
				<polygon class="st0" points="66.9,36.2 60,36 58.5,77.1 65.4,77.3 				"/>
				<rect x="46.5" y="36.1" class="st0" width="6.9" height="41.1"/>
				<polygon class="st0" points="41.5,77.1 40,36 33.1,36.2 34.6,77.3 				"/>
				<path class="st0" d="M8.7,19v6.9h7.2l5.7,65.3c0.2,1.8,1.7,3.2,3.5,3.2h49.7c1.8,0,3.3-1.4,3.5-3.2L84,25.9h7.4V19H8.7z
					 M71.6,87.4H28.3l-5.4-61.5H77L71.6,87.4z"/>
			</g>
		</g>
	</g>
	<g>
		<g>
			<path class="st0" d="M61.3,5.7H38.7c-3.2,0-5.8,2.6-5.8,5.8v11h6.9v-9.8h20.4v9.8h6.9v-11C67.1,8.3,64.5,5.7,61.3,5.7z"/>
		</g>
	</g>
</g>
<g>
	<g>
		<g>
			<g>
				<polygon class="st1" points="66.9,236.2 60,236 58.5,277.1 65.4,277.3 				"/>
				<rect x="46.5" y="236.1" class="st1" width="6.9" height="41.1"/>
				<polygon class="st1" points="41.5,277.1 40,236 33.1,236.2 34.6,277.3 				"/>
				<path class="st1" d="M8.7,219v6.9h7.2l5.7,65.3c0.2,1.8,1.7,3.2,3.5,3.2h49.7c1.8,0,3.3-1.4,3.5-3.2l5.7-65.2h7.4V219H8.7z
					 M71.6,287.4H28.3l-5.4-61.5H77L71.6,287.4z"/>
			</g>
		</g>
	</g>
	<g>
		<g>
			<path class="st1" d="M61.3,205.7H38.7c-3.2,0-5.8,2.6-5.8,5.8v11h6.9v-9.8h20.4v9.8h6.9v-11C67.1,208.3,64.5,205.7,61.3,205.7z"
				/>
		</g>
	</g>
</g>
</svg>
