<?xml version="1.0" encoding="utf-8"?>
<!-- Generator: Adobe Illustrator 19.2.0, SVG Export Plug-In . SVG Version: 6.00 Build 0)  -->
<svg version="1.1" id="Layer_1" xmlns="http://www.w3.org/2000/svg" xmlns:xlink="http://www.w3.org/1999/xlink" x="0px" y="0px"
	 viewBox="0 0 111.8 111.8" style="enable-background:new 0 0 111.8 111.8;" xml:space="preserve">
<g id="Layer_x0020_1">
	<g id="_1572569408144">
		<g>
			<g>
				<path style="fill:#C61E3B;" d="M86.2,35.3c1.1,0,1.9-0.8,1.9-1.9V12.5c0-3.2-2.5-5.9-5.7-5.9H12.5c-3.2,0-5.9,2.6-5.9,5.9v86.8
					c0,3.1,2.6,5.7,5.9,5.7h69.8c3.2,0,5.7-2.6,5.7-5.7V85.1c0-1.1-0.8-1.9-1.9-1.9s-1.9,0.8-1.9,1.9v14.2c0,1-0.8,1.9-1.9,1.9H12.5
					c-1.1,0-1.9-1-1.9-1.9V12.5c0-1.1,0.8-1.9,1.9-1.9h69.8c1.1,0,1.9,0.8,1.9,1.9v20.8C84.3,34.4,85.1,35.3,86.2,35.3z"/>
			</g>
		</g>
		<g>
			<g>
				<path style="fill:#C61E3B;" d="M47.4,17.1c-9.8,0-17.7,7.9-17.7,17.7c0,5,2.2,9.6,5.6,12.8c0,0.1,0.1,0.1,0.1,0.2
					c3.2,2.9,7.4,4.7,12,4.7s8.7-1.8,12-4.7c0-0.1,0.1-0.1,0.1-0.2c3.5-3.2,5.6-7.8,5.6-12.8C65.1,25,57.1,17.1,47.4,17.1z
					 M47.4,48.6c-3.1,0-6-1.1-8.4-2.9c1.7-3,4.9-4.9,8.4-4.9s6.7,1.9,8.4,4.9C53.4,47.6,50.6,48.6,47.4,48.6z M44.3,34.1v-1.3
					c0-1.7,1.4-3.1,3.1-3.1c1.7,0,3.1,1.4,3.1,3.1v1.3c0,1.7-1.4,3-3.1,3C45.8,37.1,44.3,35.7,44.3,34.1z M58.6,42.9
					c-1.4-2-3.3-3.7-5.6-4.7c0.8-1.2,1.4-2.6,1.4-4.2v-1.3c0-3.8-3.1-6.9-6.9-6.9s-6.9,3.1-6.9,6.9v1.3c0,1.6,0.6,3,1.4,4.2
					c-2.3,1-4.2,2.6-5.6,4.7c-1.7-2.3-2.7-5-2.7-8.1c0-7.6,6.2-13.9,13.9-13.9s13.9,6.2,13.9,13.9C61.3,37.9,60.2,40.6,58.6,42.9z"
					/>
			</g>
		</g>
		<g>
			<g>
				<path style="fill:#C61E3B;" d="M57.8,90.8H47.4c-1.1,0-1.9,0.8-1.9,1.9c0,1.1,0.8,1.9,1.9,1.9h10.4c1.1,0,1.9-0.8,1.9-1.9
					C59.8,91.7,58.9,90.8,57.8,90.8z"/>
			</g>
		</g>
		<g>
			<g>
				<path style="fill:#C61E3B;" d="M57.8,80.1H30.6c-1.1,0-1.9,0.8-1.9,1.9c0,1.1,0.8,1.9,1.9,1.9h27.3c1.1,0,1.9-0.8,1.9-1.9
					C59.8,80.9,58.9,80.1,57.8,80.1z"/>
			</g>
		</g>
		<g>
			<g>
				<path style="fill:#C61E3B;" d="M57.8,69.3H30.6c-1.1,0-1.9,0.8-1.9,1.9s0.8,1.9,1.9,1.9h27.3c1.1,0,1.9-0.8,1.9-1.9
					S58.9,69.3,57.8,69.3z"/>
			</g>
		</g>
		<g>
			<g>
				<path style="fill:#C61E3B;" d="M23.7,59.2c-0.4-0.4-0.8-0.6-1.3-0.6c-0.5,0-1,0.2-1.3,0.6c-0.4,0.4-0.6,0.8-0.6,1.3
					s0.2,1,0.6,1.3c0.4,0.4,0.8,0.6,1.3,0.6c0.5,0,1-0.2,1.3-0.6c0.4-0.4,0.6-0.8,0.6-1.3S24,59.5,23.7,59.2z"/>
			</g>
		</g>
		<g>
			<g>
				<path style="fill:#C61E3B;" d="M23.7,69.9c-0.4-0.4-0.8-0.6-1.3-0.6c-0.5,0-1,0.2-1.3,0.6c-0.4,0.4-0.6,0.8-0.6,1.3
					s0.2,1,0.6,1.3c0.4,0.4,0.8,0.6,1.3,0.6c0.5,0,1-0.2,1.3-0.6c0.4-0.4,0.6-0.8,0.6-1.3S24,70.3,23.7,69.9z"/>
			</g>
		</g>
		<g>
			<g>
				<path style="fill:#C61E3B;" d="M23.7,80.7c-0.4-0.4-0.8-0.6-1.3-0.6c-0.5,0-1,0.2-1.3,0.6s-0.6,0.8-0.6,1.3c0,0.5,0.2,1,0.6,1.3
					s0.8,0.6,1.3,0.6c0.5,0,1-0.2,1.3-0.6s0.6-0.8,0.6-1.3C24.3,81.5,24,81,23.7,80.7z"/>
			</g>
		</g>
		<g>
			<g>
				<path style="fill:#C61E3B;" d="M57.8,58.6H30.6c-1.1,0-1.9,0.8-1.9,1.9s0.8,1.9,1.9,1.9h27.3c1.1,0,1.9-0.8,1.9-1.9
					S58.9,58.6,57.8,58.6z"/>
			</g>
		</g>
		<g>
			<g>
				<path style="fill:#C61E3B;" d="M101,31.8c-1.9-1.1-4.1-1.4-6.1-0.8c-2.2,0.6-3.8,1.9-4.9,3.7L65.9,76.5
					c-0.1,0.2-0.2,0.6-0.2,0.8l-1.8,15.2c0,0.7,0.4,1.6,1,1.9c0.4,0.1,0.7,0.2,1,0.2c0.5,0,0.8-0.1,1.2-0.4l12.3-9.1
					c0.2-0.1,0.4-0.4,0.6-0.6L104,42.8C106.1,39,104.8,33.9,101,31.8z M68.1,88.6l1-7.9l5.5,3.2L68.1,88.6z M77.4,81l-7.3-4.2
					l19.4-33.6l7.3,4.2L77.4,81z M100.6,40.9l-1.9,3.2l-7.3-4.2l1.9-3.2c0.5-1.1,1.4-1.8,2.5-2c1.1-0.2,2.3-0.1,3.2,0.5
					c1,0.5,1.7,1.4,1.9,2.5C101.4,38.7,101.2,39.9,100.6,40.9z"/>
			</g>
		</g>
	</g>
	<rect style="fill:none;" width="111.8" height="111.8"/>
</g>
</svg>
