<?xml version="1.0" encoding="utf-8"?>
<!-- Generator: Adobe Illustrator 19.2.0, SVG Export Plug-In . SVG Version: 6.00 Build 0)  -->
<svg version="1.1" id="Layer_1" xmlns="http://www.w3.org/2000/svg" xmlns:xlink="http://www.w3.org/1999/xlink" x="0px" y="0px"
	 viewBox="0 0 111.8 111.8" style="enable-background:new 0 0 111.8 111.8;" xml:space="preserve">
<g id="Layer_x0020_1">
	<g id="_1572726093696">
		<g>
			<path style="fill:#C61E3B;" d="M102.2,12.7H87.5V7.3c0-0.9-0.7-1.6-1.6-1.6H25.8c-0.8,0-1.6,0.7-1.6,1.6v5.4H9.5
				c-2.1,0-3.8,1.8-3.8,3.8v70.2c0,2.1,1.7,3.8,3.8,3.8h35v12.3H29.4c-0.9,0-1.6,0.7-1.6,1.6s0.7,1.6,1.6,1.6h45.8
				c0.9,0,1.6-0.7,1.6-1.6s-0.7-1.6-1.6-1.6h-8V90.6h6.6c0.9,0,1.6-0.7,1.6-1.6c0-0.9-0.7-1.6-1.6-1.6H9.5c-0.3,0-0.6-0.3-0.6-0.6
				V16.6c0-0.3,0.3-0.6,0.6-0.6h14.7v58.4H14c-0.8,0-1.6,0.7-1.6,1.6c0,0.9,0.7,1.6,1.6,1.6h59.9c0.9,0,1.6-0.7,1.6-1.6
				c0-0.8-0.7-1.6-1.6-1.6H61.3V61.3c0-0.9-0.7-1.6-1.6-1.6H34.3c-0.8,0-1.6,0.7-1.6,1.6v13.1h-5.3v-60V8.9h56.9v14.6
				c0,0.9,0.7,1.6,1.6,1.6s1.6-0.7,1.6-1.6v-7.6h14.7c0.3,0,0.6,0.3,0.6,0.6v70.2c0,0.3-0.3,0.6-0.6,0.6H98c-0.9,0-1.6,0.7-1.6,1.6
				c0,0.8,0.7,1.6,1.6,1.6h4.2c2.1,0,3.8-1.7,3.8-3.8V16.6C106,14.5,104.3,12.7,102.2,12.7z M64.1,102.8H47.7V90.6h16.4V102.8z
				 M36,62.9h22.1v11.5H36V62.9z"/>
			<path style="fill:#C61E3B;" d="M93.2,43.8L93.2,43.8c0-0.1,0-0.1,0-0.2v-0.1c-0.1-0.1-0.1-0.1-0.1-0.1l0,0v-0.1l0,0l-5.7-14.1
				c-0.2-0.6-0.8-1-1.5-1c-0.7,0-1.2,0.4-1.5,1l-5.7,14.1v0.1l0,0c0,0.1-0.1,0.1-0.1,0.1v0.1c0,0.1,0,0.1,0,0.1
				c-0.1,0-0.1,0.1-0.1,0.1v0.1c0,0.1,0,0.1,0,0.2v54.6c0,4,3.3,7.3,7.3,7.3c4,0,7.3-3.3,7.3-7.3V44.1C93.2,44,93.2,44,93.2,43.8
				L93.2,43.8L93.2,43.8z M81.9,45.7H90v45.6h-8.1V45.7z M85.9,34.2l3.3,8.2h-6.7L85.9,34.2L85.9,34.2z M85.9,102.8
				c-2.3,0-4.1-1.9-4.1-4.1v-4.1H90v4.1C90,101,88.2,102.8,85.9,102.8z"/>
			<path style="fill:#C61E3B;" d="M34.3,28.8h43.1c0.8,0,1.6-0.7,1.6-1.6V15.9c0-0.9-0.7-1.6-1.6-1.6H34.3c-0.8,0-1.6,0.7-1.6,1.6
				v11.2C32.8,28,33.5,28.8,34.3,28.8z M36,17.5h39.8v8.1H36V17.5z"/>
			<path style="fill:#C61E3B;" d="M77.4,31.9H34.3c-0.8,0-1.6,0.7-1.6,1.6c0,0.8,0.7,1.6,1.6,1.6h43.1c0.8,0,1.6-0.7,1.6-1.6
				C79,32.7,78.2,31.9,77.4,31.9L77.4,31.9z"/>
			<path style="fill:#C61E3B;" d="M59.7,40.5H34.3c-0.8,0-1.6,0.7-1.6,1.6c0,0.8,0.7,1.6,1.6,1.6h25.3c0.9,0,1.6-0.7,1.6-1.6
				C61.3,41.2,60.6,40.5,59.7,40.5L59.7,40.5z"/>
			<path style="fill:#C61E3B;" d="M74.1,40.5h-8c-0.9,0-1.6,0.7-1.6,1.6c0,0.8,0.7,1.6,1.6,1.6h8c0.9,0,1.6-0.7,1.6-1.6
				C75.8,41.2,75,40.5,74.1,40.5L74.1,40.5z"/>
			<path style="fill:#C61E3B;" d="M59.7,46.9H34.3c-0.8,0-1.6,0.7-1.6,1.6s0.7,1.6,1.6,1.6h25.3c0.9,0,1.6-0.7,1.6-1.6
				S60.6,46.9,59.7,46.9z"/>
			<path style="fill:#C61E3B;" d="M73.8,46.9h-7.7c-0.9,0-1.6,0.7-1.6,1.6s0.7,1.6,1.6,1.6h7.7c0.9,0,1.6-0.7,1.6-1.6
				S74.7,46.9,73.8,46.9z"/>
			<path style="fill:#C61E3B;" d="M59.7,53.3H34.3c-0.8,0-1.6,0.7-1.6,1.6c0,0.9,0.7,1.6,1.6,1.6h25.3c0.9,0,1.6-0.7,1.6-1.6
				C61.3,54,60.6,53.3,59.7,53.3L59.7,53.3z"/>
			<path style="fill:#C61E3B;" d="M73.8,53.3h-7.7c-0.9,0-1.6,0.7-1.6,1.6c0,0.9,0.7,1.6,1.6,1.6h7.7c0.9,0,1.6-0.7,1.6-1.6
				C75.4,54,74.7,53.3,73.8,53.3L73.8,53.3z"/>
		</g>
	</g>
	<rect style="fill:none;" width="111.8" height="111.8"/>
</g>
</svg>
