<?xml version="1.0" encoding="utf-8"?>
<!-- Generator: Adobe Illustrator 19.2.0, SVG Export Plug-In . SVG Version: 6.00 Build 0)  -->
<svg version="1.1" id="Layer_1" xmlns="http://www.w3.org/2000/svg" xmlns:xlink="http://www.w3.org/1999/xlink" x="0px" y="0px"
	 viewBox="0 0 100 100" style="enable-background:new 0 0 100 100;" xml:space="preserve">
<g>
	<defs>
		<path id="SVGID_1_" d="M78.8,65.1h5.5c0.8,0,1.4-0.6,1.4-1.4c0-0.8-0.6-1.4-1.4-1.4h-5.5c-0.8,0-1.4,0.6-1.4,1.4
			C77.4,64.5,78,65.1,78.8,65.1 M88.3,63.7c0,2.3-1.8,4.1-4.1,4.1H15.8c-2.3,0-4.1-1.8-4.1-4.1v-9.6h76.7V63.7z M80.1,78.8h-0.4
			l-3.1-8.2h3.5V78.8z M20.3,78.8h-0.4v-8.2h3.5L20.3,78.8z M11.7,41.8c0-2.3,1.8-4.1,4.1-4.1h6.8v13.7h-11V41.8z M19.9,25.3
			c0-2.3,1.8-4.1,4.1-4.1h52c2.3,0,4.1,1.8,4.1,4.1v9.6H76c-0.8,0-1.4,0.6-1.4,1.4v15.1H25.3V36.3c0-0.8-0.6-1.4-1.4-1.4h-4.1V25.3z
			 M88.3,41.8v9.6h-11V37.7h6.8C86.5,37.7,88.3,39.5,88.3,41.8z M84.2,34.9h-1.4v-9.6c0-3.8-3.1-6.8-6.8-6.8H24
			c-3.8,0-6.8,3.1-6.8,6.8v9.6h-1.4c-3.8,0-6.8,3.1-6.8,6.8v21.9c0,3.8,3.1,6.8,6.8,6.8h1.4v9.6c0,0.8,0.6,1.4,1.4,1.4h2.7
			c0.6,0,1.1-0.4,1.3-0.9l3.8-10.1h47.4l3.8,10.1c0.2,0.5,0.7,0.9,1.3,0.9h2.7c0.8,0,1.4-0.6,1.4-1.4v-9.6h1.4
			c3.8,0,6.8-3.1,6.8-6.8V41.8C91.1,38,88,34.9,84.2,34.9z M73.3,62.3H15.8c-0.8,0-1.4,0.6-1.4,1.4c0,0.8,0.6,1.4,1.4,1.4h57.5
			c0.8,0,1.4-0.6,1.4-1.4C74.7,62.9,74,62.3,73.3,62.3z"/>
	</defs>
	<use xlink:href="#SVGID_1_"  style="overflow:visible;fill-rule:evenodd;clip-rule:evenodd;fill:#010101;"/>
	<clipPath id="SVGID_2_">
		<use xlink:href="#SVGID_1_"  style="overflow:visible;"/>
	</clipPath>
	<rect x="8.9" y="18.5" style="clip-path:url(#SVGID_2_);fill:#010101;" width="82.2" height="63"/>
</g>
</svg>
