<?xml version="1.0" encoding="utf-8"?>
<!-- Generator: Adobe Illustrator 19.2.0, SVG Export Plug-In . SVG Version: 6.00 Build 0)  -->
<svg version="1.1" id="Layer_1" xmlns="http://www.w3.org/2000/svg" xmlns:xlink="http://www.w3.org/1999/xlink" x="0px" y="0px"
	 viewBox="0 0 100 100" style="enable-background:new 0 0 100 100;" xml:space="preserve">
<g>
	<g>
		<defs>
			<path id="SVGID_1_" d="M76.3,44.3c3.2,4.1,5,9.2,5,14.6v25c0,0.9-0.3,1.8-0.8,2.5h3.3c0.7,0,1.3-0.3,1.8-0.7
				c0.5-0.5,0.7-1.1,0.7-1.8v-25c0-5.6-2.1-10.7-5.5-14.5c-3.4-3.7-8-6.3-13.3-7C71.1,39,74,41.4,76.3,44.3 M63.3,35.9
				c1,0.3,2.1,0.6,3,1c-0.1-0.2-0.2-0.4-0.2-0.7v0c0-0.3,0.2-0.5,0.4-0.7c0.2-0.2,0.5-0.3,0.8-0.2h0c6,0.6,11.3,3.5,15.1,7.7
				c3.8,4.2,6.1,9.8,6.1,15.9v25c0,1.3-0.5,2.4-1.4,3.3c-0.8,0.8-2,1.4-3.3,1.4h-3.6c-0.3,0-0.5-0.1-0.7-0.3h0
				c-0.1-0.1-0.2-0.3-0.3-0.5c-0.7,0.5-1.6,0.8-2.6,0.8H16.1c-1.3,0-2.4-0.5-3.3-1.4c-0.8-0.8-1.4-2-1.4-3.3v-25
				c0-5.5,1.9-10.6,5-14.6c3.2-4.1,7.7-7.1,13-8.3l0,0c0.3-0.1,0.6,0,0.8,0.1c0.1,0,0.1,0.1,0.2,0.1v-8.8c0-4.4,1.8-8.4,4.7-11.2
				c2.9-2.9,6.9-4.7,11.2-4.7c2.3,0,4.5,0.5,6.5,1.4c0-0.1-0.1-0.2-0.1-0.4v0c0-0.3,0.1-0.5,0.3-0.7c0.2-0.2,0.4-0.3,0.7-0.3l0,0
				c4.3,0.1,8.2,1.9,11,4.8c2.8,2.9,4.5,6.8,4.5,11.1v6.7c0,0.3-0.1,0.6-0.3,0.7h0c-0.2,0.2-0.5,0.3-0.7,0.3c-0.3,0-0.6-0.1-0.7-0.3
				c-0.2-0.2-0.3-0.5-0.3-0.7v-6.7c0-3.7-1.5-7.1-4-9.6c-2.3-2.4-5.5-4-9.1-4.2c1.2,0.7,2.3,1.6,3.3,2.6c1.9,1.9,3.6,5.4,4.4,8.1
				c0.2,1,0.3,2.1,0.3,3.1v8.8c0.1-0.1,0.1-0.1,0.2-0.2C62.8,35.9,63,35.9,63.3,35.9L63.3,35.9z M62.8,38c-0.2,0-0.4-0.1-0.5-0.3
				v5.8c0,0.3-0.1,0.6-0.3,0.7c-0.2,0.2-0.5,0.3-0.7,0.3c-0.3,0-0.6-0.1-0.7-0.3c-0.2-0.2-0.3-0.5-0.3-0.7V27.4
				c0-3.8-1.6-7.3-4.1-9.8c-2.5-2.5-6-4.1-9.8-4.1c-3.8,0-7.3,1.5-9.8,4.1c-2.5,2.5-4.1,6-4.1,9.8v16.1c0,0.3-0.1,0.6-0.3,0.7
				c-0.2,0.2-0.5,0.3-0.7,0.3c-0.3,0-0.6-0.1-0.7-0.3c-0.2-0.2-0.3-0.5-0.3-0.7v-5.8c-0.1,0.1-0.3,0.2-0.5,0.3
				c-4.8,1.2-9,3.9-11.9,7.6c-2.9,3.7-4.6,8.3-4.6,13.3v25c0,0.7,0.3,1.3,0.7,1.8c0.5,0.5,1.1,0.7,1.8,0.7h60.6
				c0.7,0,1.3-0.3,1.8-0.7c0.5-0.5,0.7-1.1,0.7-1.8v-25c0-5-1.7-9.6-4.6-13.3C71.8,41.9,67.7,39.2,62.8,38L62.8,38z M51.3,45.4
				c-0.2,0.2-0.5,0.3-0.7,0.3h-8.3c-0.3,0-0.5-0.1-0.7-0.3h0c-0.2-0.2-0.3-0.5-0.3-0.7c0-0.3,0.1-0.6,0.3-0.7h0
				c0.2-0.2,0.5-0.3,0.7-0.3h8.3c0.3,0,0.5,0.1,0.7,0.3h0c0.2,0.2,0.3,0.5,0.3,0.7C51.6,44.9,51.5,45.2,51.3,45.4L51.3,45.4z
				 M44.5,27.4v6.5c0,0.3-0.1,0.6-0.3,0.7C44,34.9,43.7,35,43.5,35c-0.3,0-0.6-0.1-0.7-0.3c-0.2-0.2-0.3-0.5-0.3-0.7v-6.5
				c0-1.8,0.4-3.5,1.2-5.1c0.8-1.5,1.9-2.9,3.4-3.9c-0.2,0-0.4,0-0.6,0c-2.5,0-4.8,1-6.4,2.7c-0.3,0.3-0.6,0.6-0.9,1
				c0.2,0,0.3,0,0.5,0l0,0l0,0c0.3,0.1,0.5,0.3,0.6,0.5c0.1,0.2,0.2,0.5,0.1,0.8l0,0l0,0c-0.2,0.6-0.3,1.3-0.4,2
				c-0.1,0.7-0.2,1.4-0.2,2.1v6.5c0,0.3-0.1,0.6-0.3,0.7C39.3,34.9,39,35,38.7,35c-0.3,0-0.6-0.1-0.7-0.3c-0.2-0.2-0.3-0.5-0.3-0.7
				v-6.5c0-0.8,0.1-1.6,0.2-2.4c0-0.3,0.1-0.6,0.2-1c-0.4,1-0.6,2.2-0.6,3.3v16.1c0,0.3-0.1,0.6-0.3,0.7h0c-0.2,0.2-0.5,0.3-0.7,0.3
				c-0.3,0-0.6-0.1-0.7-0.3c-0.2-0.2-0.3-0.5-0.3-0.7V27.4c0-3.1,1.3-5.9,3.3-7.9c2-2,4.8-3.3,7.9-3.3c3.1,0,5.9,1.3,7.9,3.3
				c2,2,3.3,4.8,3.3,7.9v16.1c0,0.3-0.1,0.6-0.3,0.7h0c-0.2,0.2-0.5,0.3-0.7,0.3c-0.3,0-0.6-0.1-0.7-0.3c-0.2-0.2-0.3-0.5-0.3-0.7
				V27.4c0-2.5-1-4.8-2.7-6.4c-1.2-1.2-2.6-2-4.3-2.4c0.2,0.2,0.2,0.5,0.2,0.8c0,0.3-0.2,0.5-0.4,0.7c-1.2,0.8-2.1,2-2.8,3.2
				C44.9,24.5,44.5,25.9,44.5,27.4z M14.7,83.3c-0.2-0.2-0.3-0.5-0.3-0.7c0-0.3,0.1-0.5,0.3-0.7v0c0.2-0.2,0.5-0.3,0.7-0.3h60.6
				c0.3,0,0.6,0.1,0.7,0.3c0.2,0.2,0.3,0.5,0.3,0.7c0,0.3-0.1,0.6-0.3,0.7h0c-0.2,0.2-0.5,0.3-0.7,0.3H15.5
				C15.2,83.7,14.9,83.5,14.7,83.3z"/>
		</defs>
		<use xlink:href="#SVGID_1_"  style="overflow:visible;fill-rule:evenodd;clip-rule:evenodd;fill:#010101;"/>
		<clipPath id="SVGID_2_">
			<use xlink:href="#SVGID_1_"  style="overflow:visible;"/>
		</clipPath>
		<rect x="11.5" y="11.5" style="clip-path:url(#SVGID_2_);fill:#010101;" width="77" height="77"/>
	</g>
	<g>
		<defs>
			<path id="SVGID_3_" d="M50.3,61c-0.9-0.9-2.1-1.5-3.5-1.5c-1.4,0-2.6,0.6-3.5,1.5c-0.9,0.9-1.5,2.1-1.5,3.5
				c0,1.4,0.6,2.6,1.5,3.5l0,0c0.9,0.9,2.1,1.5,3.5,1.5c1.4,0,2.6-0.6,3.5-1.5c0.9-0.9,1.5-2.1,1.5-3.5C51.7,63.1,51.2,61.9,50.3,61
				L50.3,61z M46.8,57.7c1.9,0,3.6,0.8,4.8,2h0c1.2,1.2,2,2.9,2,4.8c0,1.9-0.8,3.6-2,4.8l0,0c-1.2,1.2-2.9,2-4.8,2
				c-1.9,0-3.6-0.8-4.8-2v0c-1.2-1.2-2-2.9-2-4.8c0-1.9,0.8-3.6,2-4.8C43.2,58.5,44.9,57.7,46.8,57.7z"/>
		</defs>
		<use xlink:href="#SVGID_3_"  style="overflow:visible;fill:#010101;"/>
		<clipPath id="SVGID_4_">
			<use xlink:href="#SVGID_3_"  style="overflow:visible;"/>
		</clipPath>
		<rect x="40" y="57.7" style="clip-path:url(#SVGID_4_);fill:#010101;" width="13.5" height="13.5"/>
	</g>
</g>
</svg>
