<?xml version="1.0" encoding="utf-8"?>
<!-- Generator: Adobe Illustrator 19.2.0, SVG Export Plug-In . SVG Version: 6.00 Build 0)  -->
<svg version="1.1" id="Capa_1" xmlns="http://www.w3.org/2000/svg" xmlns:xlink="http://www.w3.org/1999/xlink" x="0px" y="0px"
	 viewBox="0 0 100 300" style="enable-background:new 0 0 100 300;" xml:space="preserve">
<style type="text/css">
	.st0{fill:#FFFFFF;}
	.st1{fill:#B21A34;}
</style>
<g>
	<g>
		<path d="M27.2,162.7c7.6,9.1,16.8,16.2,27.2,21.3c4,1.9,9.3,4.1,15.2,4.5c0.4,0,0.7,0,1.1,0c4,0,7.2-1.4,9.8-4.2c0,0,0,0,0.1-0.1
			c0.9-1.1,2-2.1,3.1-3.2c0.8-0.7,1.5-1.5,2.3-2.2c3.4-3.5,3.4-8,0-11.5l-9.6-9.6c-1.6-1.7-3.6-2.6-5.6-2.6c-2,0-4,0.9-5.7,2.6
			l-5.7,5.7c-0.5-0.3-1.1-0.6-1.6-0.8c-0.6-0.3-1.2-0.6-1.8-1c-5.2-3.3-9.9-7.6-14.5-13.2c-2.3-2.9-3.8-5.3-4.9-7.8
			c1.5-1.4,2.9-2.8,4.3-4.2c0.5-0.5,1-1,1.5-1.5c1.7-1.7,2.7-3.7,2.7-5.7c0-2-0.9-4-2.7-5.7l-4.8-4.8c-0.6-0.6-1.1-1.1-1.6-1.7
			c-1.1-1.1-2.2-2.2-3.2-3.2c-1.6-1.6-3.6-2.5-5.6-2.5c-2,0-4,0.8-5.7,2.5l-6,6c-2.2,2.2-3.4,4.8-3.7,7.9c-0.3,3.8,0.4,7.9,2.2,12.8
			C16.7,148.1,20.9,155.2,27.2,162.7z M15.6,128.1c0.2-2.1,1-3.9,2.5-5.4l5.9-5.9c0.9-0.9,1.9-1.4,2.9-1.4c1,0,2,0.5,2.9,1.4
			c1.1,1,2.1,2,3.2,3.1c0.5,0.6,1.1,1.1,1.7,1.7l4.8,4.8c1,1,1.5,2,1.5,3c0,1-0.5,2-1.5,3c-0.5,0.5-1,1-1.5,1.5
			c-1.5,1.5-2.9,2.9-4.4,4.3c0,0,0,0-0.1,0.1c-1.3,1.3-1.1,2.6-0.8,3.5c0,0,0,0.1,0,0.1c1.2,3,2.9,5.8,5.6,9.1
			c4.8,5.9,9.8,10.5,15.4,14c0.7,0.4,1.4,0.8,2.1,1.1c0.6,0.3,1.2,0.6,1.8,1c0.1,0,0.1,0.1,0.2,0.1c0.5,0.3,1,0.4,1.5,0.4
			c1.3,0,2.1-0.8,2.4-1.1l6-6c0.9-0.9,1.9-1.4,2.9-1.4c1.2,0,2.2,0.8,2.8,1.4l9.6,9.6c1.9,1.9,1.9,4,0,6c-0.7,0.7-1.4,1.4-2.1,2.1
			c-1.1,1.1-2.3,2.2-3.3,3.5c-1.8,2-4,2.9-6.9,2.9c-0.3,0-0.6,0-0.8,0c-5.2-0.3-10.1-2.4-13.8-4.1c-9.9-4.8-18.7-11.6-25.9-20.3
			c-6-7.2-10-13.8-12.6-21C15.9,134.8,15.3,131.3,15.6,128.1z"/>
	</g>
</g>
<g>
	<g>
		<path class="st0" d="M27.2,62.7c7.6,9.1,16.8,16.2,27.2,21.3c4,1.9,9.3,4.1,15.2,4.5c0.4,0,0.7,0,1.1,0c4,0,7.2-1.4,9.8-4.2
			c0,0,0,0,0.1-0.1c0.9-1.1,2-2.1,3.1-3.2c0.8-0.7,1.5-1.5,2.3-2.2c3.4-3.5,3.4-8,0-11.5l-9.6-9.6c-1.6-1.7-3.6-2.6-5.6-2.6
			c-2,0-4,0.9-5.7,2.6l-5.7,5.7c-0.5-0.3-1.1-0.6-1.6-0.8c-0.6-0.3-1.2-0.6-1.8-1c-5.2-3.3-9.9-7.6-14.5-13.2
			c-2.3-2.9-3.8-5.3-4.9-7.8c1.5-1.4,2.9-2.8,4.3-4.2c0.5-0.5,1-1,1.5-1.5c1.7-1.7,2.7-3.7,2.7-5.7s-0.9-4-2.7-5.7l-4.8-4.8
			c-0.6-0.6-1.1-1.1-1.6-1.7c-1.1-1.1-2.2-2.2-3.2-3.2C31,12.3,29,11.5,27,11.5c-2,0-4,0.8-5.7,2.5l-6,6c-2.2,2.2-3.4,4.8-3.7,7.9
			c-0.3,3.8,0.4,7.9,2.2,12.8C16.7,48.1,20.9,55.2,27.2,62.7z M15.6,28.1c0.2-2.1,1-3.9,2.5-5.4l5.9-5.9c0.9-0.9,1.9-1.4,2.9-1.4
			c1,0,2,0.5,2.9,1.4c1.1,1,2.1,2,3.2,3.1c0.5,0.6,1.1,1.1,1.7,1.7l4.8,4.8c1,1,1.5,2,1.5,3c0,1-0.5,2-1.5,3c-0.5,0.5-1,1-1.5,1.5
			c-1.5,1.5-2.9,2.9-4.4,4.3c0,0,0,0-0.1,0.1c-1.3,1.3-1.1,2.6-0.8,3.5c0,0,0,0.1,0,0.1c1.2,3,2.9,5.8,5.6,9.1
			c4.8,5.9,9.8,10.5,15.4,14c0.7,0.4,1.4,0.8,2.1,1.1c0.6,0.3,1.2,0.6,1.8,1c0.1,0,0.1,0.1,0.2,0.1c0.5,0.3,1,0.4,1.5,0.4
			c1.3,0,2.1-0.8,2.4-1.1l6-6c0.9-0.9,1.9-1.4,2.9-1.4c1.2,0,2.2,0.8,2.8,1.4l9.6,9.6c1.9,1.9,1.9,4,0,6c-0.7,0.7-1.4,1.4-2.1,2.1
			c-1.1,1.1-2.3,2.2-3.3,3.5c-1.8,2-4,2.9-6.9,2.9c-0.3,0-0.6,0-0.8,0c-5.2-0.3-10.1-2.4-13.8-4.1c-9.9-4.8-18.7-11.6-25.9-20.3
			c-6-7.2-10-13.8-12.6-21C15.9,34.8,15.3,31.3,15.6,28.1z"/>
	</g>
</g>
<g>
	<g>
		<path class="st1" d="M27.2,262.7c7.6,9.1,16.8,16.2,27.2,21.3c4,1.9,9.3,4.1,15.2,4.5c0.4,0,0.7,0,1.1,0c4,0,7.2-1.4,9.8-4.2
			c0,0,0,0,0.1-0.1c0.9-1.1,2-2.1,3.1-3.2c0.8-0.7,1.5-1.5,2.3-2.2c3.4-3.5,3.4-8,0-11.5l-9.6-9.6c-1.6-1.7-3.6-2.6-5.6-2.6
			c-2,0-4,0.9-5.7,2.6l-5.7,5.7c-0.5-0.3-1.1-0.6-1.6-0.8c-0.6-0.3-1.2-0.6-1.8-1c-5.2-3.3-9.9-7.6-14.5-13.2
			c-2.3-2.9-3.8-5.3-4.9-7.8c1.5-1.4,2.9-2.8,4.3-4.2c0.5-0.5,1-1,1.5-1.5c1.7-1.7,2.7-3.7,2.7-5.7c0-2-0.9-4-2.7-5.7l-4.8-4.8
			c-0.6-0.6-1.1-1.1-1.6-1.7c-1.1-1.1-2.2-2.2-3.2-3.2c-1.6-1.6-3.6-2.5-5.6-2.5c-2,0-4,0.8-5.7,2.5l-6,6c-2.2,2.2-3.4,4.8-3.7,7.9
			c-0.3,3.8,0.4,7.9,2.2,12.8C16.7,248.1,20.9,255.2,27.2,262.7z M15.6,228.1c0.2-2.1,1-3.9,2.5-5.4l5.9-5.9
			c0.9-0.9,1.9-1.4,2.9-1.4c1,0,2,0.5,2.9,1.4c1.1,1,2.1,2,3.2,3.1c0.5,0.6,1.1,1.1,1.7,1.7l4.8,4.8c1,1,1.5,2,1.5,3
			c0,1-0.5,2-1.5,3c-0.5,0.5-1,1-1.5,1.5c-1.5,1.5-2.9,2.9-4.4,4.3c0,0,0,0-0.1,0.1c-1.3,1.3-1.1,2.6-0.8,3.5c0,0,0,0.1,0,0.1
			c1.2,3,2.9,5.8,5.6,9.1c4.8,5.9,9.8,10.5,15.4,14c0.7,0.4,1.4,0.8,2.1,1.1c0.6,0.3,1.2,0.6,1.8,1c0.1,0,0.1,0.1,0.2,0.1
			c0.5,0.3,1,0.4,1.5,0.4c1.3,0,2.1-0.8,2.4-1.1l6-6c0.9-0.9,1.9-1.4,2.9-1.4c1.2,0,2.2,0.8,2.8,1.4l9.6,9.6c1.9,1.9,1.9,4,0,6
			c-0.7,0.7-1.4,1.4-2.1,2.1c-1.1,1.1-2.3,2.2-3.3,3.5c-1.8,2-4,2.9-6.9,2.9c-0.3,0-0.6,0-0.8,0c-5.2-0.3-10.1-2.4-13.8-4.1
			c-9.9-4.8-18.7-11.6-25.9-20.3c-6-7.2-10-13.8-12.6-21C15.9,234.8,15.3,231.3,15.6,228.1z"/>
	</g>
</g>
</svg>
