<?xml version="1.0" encoding="utf-8"?>
<!-- Generator: Adobe Illustrator 19.2.0, SVG Export Plug-In . SVG Version: 6.00 Build 0)  -->
<svg version="1.1" id="Layer_1" xmlns="http://www.w3.org/2000/svg" xmlns:xlink="http://www.w3.org/1999/xlink" x="0px" y="0px"
	 viewBox="0 0 10.6 10.6" style="enable-background:new 0 0 10.6 10.6;" xml:space="preserve">
<g>
	<g>
		<defs>
			<polygon id="SVGID_1_" points="5.3,0.1 7,1.2 9,1.6 9.4,3.6 10.5,5.3 9.3,7 9,9 7,9.4 5.3,10.5 3.6,9.3 1.6,9 1.2,7 0.1,5.3 
				1.2,3.6 1.6,1.6 3.6,1.2 			"/>
		</defs>
		<clipPath id="SVGID_2_">
			<use xlink:href="#SVGID_1_"  style="overflow:visible;"/>
		</clipPath>
		<linearGradient id="SVGID_3_" gradientUnits="userSpaceOnUse" x1="3.2124" y1="10.0327" x2="7.38" y2="0.5532">
			<stop  offset="0" style="stop-color:#458FCD"/>
			<stop  offset="1" style="stop-color:#3D5AA6"/>
		</linearGradient>
		<rect x="0.1" y="0.1" style="clip-path:url(#SVGID_2_);fill:url(#SVGID_3_);" width="10.3" height="10.3"/>
	</g>
	<path style="fill-rule:evenodd;clip-rule:evenodd;fill:#FFFFFF;" d="M2.7,5.5c0,0-0.1-0.1-0.1-0.1c0,0,0-0.1,0.1-0.1L3,4.9
		c0.1-0.1,0.2-0.1,0.3,0l0,0l1.1,1.2c0,0,0.1,0,0.1,0l2.8-2.9h0c0.1-0.1,0.2-0.1,0.3,0l0.3,0.3C8,3.7,8,3.8,7.9,3.9L4.6,7.3
		c0,0-0.1,0.1-0.1,0.1c-0.1,0-0.1,0-0.1-0.1L2.7,5.5L2.7,5.5z"/>
</g>
</svg>
