<?xml version="1.0" encoding="utf-8"?>
<!-- Generator: Adobe Illustrator 19.2.0, SVG Export Plug-In . SVG Version: 6.00 Build 0)  -->
<svg version="1.1" id="Capa_1" xmlns="http://www.w3.org/2000/svg" xmlns:xlink="http://www.w3.org/1999/xlink" x="0px" y="0px"
	 viewBox="0 0 100 300" style="enable-background:new 0 0 100 300;" xml:space="preserve">
<g>
	<g>
		<g>
			<path style="fill:#010002;" d="M87.5,151.3c4-4,2.8-12.1-4.2-12.1l-18.4,0c0.7-3.9,1.7-10.3,1.7-10.9c-0.4-5.8-4.1-12.8-4.2-13.1
				c-0.7-1.2-4.1-2.9-7.5-2.2c-4.4,0.9-4.9,3.8-4.8,4.5c0,0,0.2,7.7,0.2,9.7c-2.1,4.6-9.4,16.8-11.6,17.7c-0.5-0.3-1.1-0.5-1.7-0.5
				H13.8c-2,0-3.6,1.6-3.6,3.6l0,32.1c0.1,1.7,1.6,3.1,3.3,3.1h20.8c1.8,0,3.4-1.5,3.4-3.4v-1.1c0,0,0.8-0.1,1.1,0.2
				c1.3,0.9,3,1.9,5.2,1.9h31.1c11.6,0,10.4-10.3,9.3-11.7c2-2.1,3.2-5.9,1.5-8.9C87.2,158.9,89.5,155.2,87.5,151.3z M33.7,179.8
				H13.6v-32h20.1V179.8z M82.1,151.1l-0.2,0.8c5.4,1.5,2.5,7.7-1.3,8.1l-0.2,0.8c5.1,1.3,2.7,7.7-1.3,8.1l-0.2,0.8
				c4.2,0.7,3.2,7.8-3.2,7.8l-31.6,0c-2.2,0-4.3-2.5-5.9-2.5h-1.4v-24.6c1.8-1.1,4-2.5,5.2-3.6c2.3-2,11.7-17.2,11.7-19.1
				c0-1.9-0.2-10.2-0.2-10.2s1.9-2.4,6-0.6c0,0,3.5,6.5,3.8,11.7c0,0-1.6,10.7-2.4,14.1h21.9C88.1,142.6,87.1,150.3,82.1,151.1z"/>
		</g>
	</g>
</g>
<g>
	<g>
		<g>
			<path style="fill:#FFFFFF;" d="M87.5,51.3c4-4,2.8-12.1-4.2-12.1l-18.4,0c0.7-3.9,1.7-10.3,1.7-10.9c-0.4-5.8-4.1-12.8-4.2-13.1
				c-0.7-1.2-4.1-2.9-7.5-2.2c-4.4,0.9-4.9,3.8-4.8,4.5c0,0,0.2,7.7,0.2,9.7C48.2,31.9,40.9,44,38.7,45c-0.5-0.3-1.1-0.5-1.7-0.5
				H13.8c-2,0-3.6,1.6-3.6,3.6l0,32.1c0.1,1.7,1.6,3.1,3.3,3.1h20.8c1.8,0,3.4-1.5,3.4-3.4v-1.1c0,0,0.8-0.1,1.1,0.2
				c1.3,0.9,3,1.9,5.2,1.9h31.1c11.6,0,10.4-10.3,9.3-11.7c2-2.1,3.2-5.9,1.5-8.9C87.2,58.9,89.5,55.2,87.5,51.3z M33.7,79.8H13.6
				v-32h20.1V79.8z M82.1,51.1l-0.2,0.8c5.4,1.5,2.5,7.7-1.3,8.1l-0.2,0.8c5.1,1.3,2.7,7.7-1.3,8.1l-0.2,0.8
				c4.2,0.7,3.2,7.8-3.2,7.8l-31.6,0c-2.2,0-4.3-2.5-5.9-2.5h-1.4V50.3c1.8-1.1,4-2.5,5.2-3.6c2.3-2,11.7-17.2,11.7-19.1
				s-0.2-10.2-0.2-10.2s1.9-2.4,6-0.6c0,0,3.5,6.5,3.8,11.7c0,0-1.6,10.7-2.4,14.1h21.9C88.1,42.6,87.1,50.3,82.1,51.1z"/>
		</g>
	</g>
</g>
<g>
	<g>
		<g>
			<path style="fill:#B21A34;" d="M87.5,251.3c4-4,2.8-12.1-4.2-12.1l-18.4,0c0.7-3.9,1.7-10.3,1.7-10.9c-0.4-5.8-4.1-12.8-4.2-13.1
				c-0.7-1.2-4.1-2.9-7.5-2.2c-4.4,0.9-4.9,3.8-4.8,4.5c0,0,0.2,7.7,0.2,9.7c-2.1,4.6-9.4,16.8-11.6,17.7c-0.5-0.3-1.1-0.5-1.7-0.5
				H13.8c-2,0-3.6,1.6-3.6,3.6l0,32.1c0.1,1.7,1.6,3.1,3.3,3.1h20.8c1.8,0,3.4-1.5,3.4-3.4v-1.1c0,0,0.8-0.1,1.1,0.2
				c1.3,0.9,3,1.9,5.2,1.9h31.1c11.6,0,10.4-10.3,9.3-11.7c2-2.1,3.2-5.9,1.5-8.9C87.2,258.9,89.5,255.2,87.5,251.3z M33.7,279.8
				H13.6v-32h20.1V279.8z M82.1,251.1l-0.2,0.8c5.4,1.5,2.5,7.7-1.3,8.1l-0.2,0.8c5.1,1.3,2.7,7.7-1.3,8.1l-0.2,0.8
				c4.2,0.7,3.2,7.8-3.2,7.8l-31.6,0c-2.2,0-4.3-2.5-5.9-2.5h-1.4v-24.6c1.8-1.1,4-2.5,5.2-3.6c2.3-2,11.7-17.2,11.7-19.1
				c0-1.9-0.2-10.2-0.2-10.2s1.9-2.4,6-0.6c0,0,3.5,6.5,3.8,11.7c0,0-1.6,10.7-2.4,14.1h21.9C88.1,242.6,87.1,250.3,82.1,251.1z"/>
		</g>
	</g>
</g>
</svg>
