<?xml version="1.0" encoding="utf-8"?>
<!-- Generator: Adobe Illustrator 19.2.0, SVG Export Plug-In . SVG Version: 6.00 Build 0)  -->
<svg version="1.1" id="Layer_1" xmlns="http://www.w3.org/2000/svg" xmlns:xlink="http://www.w3.org/1999/xlink" x="0px" y="0px"
	 viewBox="0 0 100 100" style="enable-background:new 0 0 100 100;" xml:space="preserve">
<g>
	<g>
		<defs>
			<path id="SVGID_1_" d="M56.6,12.7L56.6,12.7 M51.3,17.2h-2.6c-0.2,0-0.4-0.1-0.5-0.3l0,0l0,0c-0.1-0.2-0.2-0.5-0.2-0.8
				c0-0.3,0.1-0.6,0.2-0.8l0,0c0.1-0.2,0.3-0.3,0.5-0.3v0l2.6,0v0c0.2,0,0.4,0.1,0.5,0.3l0,0l0,0c0.1,0.2,0.2,0.5,0.2,0.8
				c0,0.3-0.1,0.6-0.2,0.8l0,0l0,0C51.7,17.1,51.5,17.2,51.3,17.2z M34.7,79.5L34.7,79.5L34.7,79.5c-0.3,0-0.6-0.1-0.8-0.3v0
				c-0.2-0.2-0.3-0.4-0.3-0.6c0-0.1,0.6-7.1,3.5-16.2c1.5-4.6,3.5-9.7,6.4-14.8c0.1-0.2,0.3-0.4,0.6-0.5c0.3-0.1,0.5-0.1,0.8,0l0,0
				c0.3,0.1,0.5,0.3,0.5,0.5c0.1,0.2,0.1,0.5,0,0.7l0,0c-2.8,4.9-4.8,10-6.2,14.5c-2.8,8.9-3.4,15.8-3.4,15.9c0,0.2-0.1,0.4-0.3,0.6
				l0,0C35.3,79.4,35,79.5,34.7,79.5L34.7,79.5z M66.5,79.5c-0.3,0-0.5-0.1-0.7-0.2c-0.2-0.1-0.3-0.4-0.3-0.6c0-0.1-0.6-7-3.4-15.9
				c-1.4-4.5-3.4-9.5-6.2-14.5l0,0c-0.1-0.2-0.1-0.5,0-0.7c0.1-0.2,0.3-0.4,0.5-0.5l0,0c0.3-0.1,0.6-0.1,0.8,0
				c0.3,0.1,0.5,0.2,0.6,0.5c2.9,5.1,4.9,10.2,6.4,14.8c2.9,9.1,3.5,16.1,3.5,16.2c0,0.2-0.1,0.5-0.3,0.6
				C67.1,79.4,66.9,79.5,66.5,79.5L66.5,79.5L66.5,79.5L66.5,79.5z M47.1,38.3L47.1,38.3L47.1,38.3l0-0.3v0l0-0.1l0,0v-0.5h-5.2V38
				v0.3v0.5h5.2L47.1,38.3L47.1,38.3z M62.5,23.7c0.1,0,0.2,0,0.3,0h2.4c0,0,0.1,0,0.1,0c0,0,0-0.1,0-0.1v0v-7.3
				c0-0.4-0.2-0.7-0.4-1l0,0c-0.2-0.2-0.6-0.4-1-0.4h-0.2l0,0h-6.1c-0.1,2-1,3.8-2.3,5.1c-1.4,1.4-3.4,2.3-5.5,2.3
				c-2.1,0-4.1-0.9-5.5-2.3c-1.3-1.3-2.2-3.1-2.3-5.1h-5.8v0h-0.5c-0.4,0-0.7,0.2-1,0.4c-0.2,0.2-0.4,0.6-0.4,1l0,0l0,0v7.3v0
				c0,0,0,0.1,0,0.1c0,0,0.1,0,0.1,0h2.4c0.1,0,0.3,0,0.4,0.1l-0.2-1.3c-0.1-0.3,0-0.6,0.2-0.8c0.2-0.2,0.4-0.4,0.7-0.4v0l0,0h0
				c0.3-0.1,0.6,0,0.8,0.2c0.2,0.2,0.4,0.4,0.4,0.7h0l0,0l0,0l2.4,13.4c0,0.1,0,0.2,0,0.3h5.1c0.3,0,0.6,0.1,0.8,0.3l0,0
				c0,0,0.1,0.1,0.1,0.1c0.1-0.1,0.1-0.1,0.2-0.2l0,0l0,0c0.5-0.5,1.3-0.9,2-0.9l0.1,0l0.1,0c0.8,0,1.5,0.3,2,0.9l0,0l0,0
				c0.1,0.1,0.1,0.1,0.2,0.2c0,0,0.1-0.1,0.1-0.1l0,0c0.2-0.2,0.5-0.3,0.8-0.3h5.1c0-0.1,0-0.2,0-0.3l2.4-13.4l0,0l0,0h0
				c0.1-0.3,0.2-0.5,0.4-0.7c0.2-0.2,0.5-0.2,0.8-0.2h0l0,0v0c0.3,0.1,0.5,0.2,0.7,0.4c0.2,0.2,0.2,0.5,0.2,0.8L62.5,23.7z M53,38.8
				L53,38.8l5.2,0v-0.5h0V38h0v-0.5h-5.1l-0.1,0V38l0,0l0,0v0v0.3v0l0,0l0,0V38.8z M41.4,40.5c0,0.2,0,0.4-0.1,0.5
				c-3.5,4.6-18.9,35.3-16.2,38.2c0.1,0.1,7.7,8.5,24.9,8.5s24.7-8.3,24.8-8.4c2.4-2.4-12.6-33.8-16.1-38.3
				c-0.1-0.2-0.2-0.4-0.1-0.5h-5.4c-0.3,0-0.6-0.1-0.8-0.3l0,0c0,0-0.1-0.1-0.1-0.1c-0.1,0.1-0.1,0.1-0.2,0.2l0,0l0,0
				c-0.5,0.5-1.3,0.9-2,0.9l-0.1,0l-0.1,0c-0.8,0-1.5-0.3-2-0.9l0,0l0,0c-0.1-0.1-0.1-0.1-0.2-0.2c0,0-0.1,0.1-0.1,0.1l0,0
				c-0.2,0.2-0.5,0.3-0.8,0.3H41.4z M50,83.1c-0.3,0-0.6-0.1-0.8-0.3l0,0c-0.2-0.2-0.3-0.4-0.3-0.6V47.9c0-0.2,0.1-0.5,0.3-0.6l0,0
				l0,0c0.2-0.2,0.5-0.3,0.8-0.3c0.3,0,0.6,0.1,0.8,0.3c0.2,0.2,0.3,0.4,0.3,0.6v34.3c0,0.2-0.1,0.5-0.3,0.6l0,0
				C50.6,83,50.3,83.1,50,83.1z M20.7,79.9L20.7,79.9L20.7,79.9L20.7,79.9L20.7,79.9L20.7,79.9L20.7,79.9L20.7,79.9L20.7,79.9
				L20.7,79.9L20.7,79.9L20.7,79.9L20.7,79.9L20.7,79.9l0-0.1l0,0l0,0l0,0l0,0v0l0,0v0l0,0v0l0,0l0,0l0,0l0,0l0,0l0,0l0,0l0,0l0,0
				l0,0l0,0l0,0l0,0v0l0,0l0,0l0,0l0,0l0,0l0,0l0,0l0,0l0,0c0.2-0.5,7.5-23.5,19.6-39.2c-0.1,0-0.2-0.1-0.2-0.2l0,0
				c-0.2-0.2-0.3-0.5-0.3-0.8v-2.4l0,0v0h0v0l0,0v0h0v0l0,0v0v0l0,0l0,0l0,0v0l0,0v0l0,0v0l0,0l0,0l0,0h0l0,0l0,0v0l0,0h0l0,0l0,0
				l0,0l0,0l0,0l0,0l0,0l0,0l0,0l0,0l0,0l0,0l0,0l0,0l0,0v0l0,0l0,0l0,0l0,0h0l0,0l0,0l0,0l0,0l0,0l0,0l0,0l0,0l0,0l0,0l0,0l0,0l0,0
				h0l0,0l0,0l0,0h0l0,0l0,0l0,0l0,0l0,0v0l0,0l0,0l0,0c-0.1-0.1-0.1-0.3-0.2-0.4v0l-1.9-10.4c-0.2,0.2-0.4,0.3-0.7,0.3h-2.4l0,0
				l0,0l0,0c-0.6,0-1.2-0.3-1.6-0.7v0c-0.4-0.4-0.7-1-0.7-1.6l0,0l0,0l0,0v-7.3l0,0l0,0l0,0c0-1,0.4-1.8,1-2.4c0.6-0.6,1.5-1,2.4-1
				l0,0l0,0l0,0h7.3c0.3,0,0.6,0.1,0.8,0.3l0,0c0.2,0.2,0.3,0.5,0.3,0.8v0v0v0.6v0v0v0c0,1.6,0.6,3,1.7,4l0,0c1,1,2.4,1.7,4,1.7
				c1.6,0,3-0.6,4-1.7c1-1,1.6-2.3,1.7-3.8v-0.2v-0.6v-0.5h0v0h0v0h0l0,0h0l0,0h0l0,0h0l0,0h0l0,0h0l0,0h0l0,0h0l0,0h0l0,0h0l0,0h0
				l0,0h0l0,0h0l0,0h0l0,0h0l0,0h0l0,0h0l0,0h0l0,0h0l0,0h0l0,0h0l0,0h0l0,0h0l0,0h0l0,0h0l0,0h0l0,0h0l0,0h0l0,0h0l0,0h0l0,0h0l0,0
				h0l0,0h0l0,0h0l0,0h0l0,0h0l0,0h0l0,0h0l0,0h0l0,0h0l0,0h0l0,0h0l0,0v0l0,0l0,0h0l0,0h0l0,0h0l0,0l0,0v0l0,0l0,0h0l0,0l0,0l0,0h0
				v0h0l0,0l0,0h7.3h0.2l0,0c0.9,0,1.7,0.4,2.3,1c0.6,0.6,1,1.5,1,2.4l0,0l0,0l0,0v7.3l0,0l0,0l0,0c0,0.6-0.3,1.2-0.7,1.6
				c-0.4,0.4-1,0.7-1.6,0.7l0,0l0,0l0,0h-2.4c-0.2,0-0.5-0.1-0.6-0.2l-1.9,10.3v0c0,0.2-0.1,0.3-0.2,0.4l0,0l0,0l0,0v0l0,0l0,0l0,0
				l0,0l0,0h0l0,0l0,0l0,0h0l0,0l0,0l0,0l0,0l0,0l0,0l0,0l0,0l0,0l0,0l0,0l0,0l0,0h0l0,0l0,0l0,0l0,0v0l0,0l0,0l0,0l0,0l0,0l0,0l0,0
				l0,0l0,0l0,0l0,0l0,0l0,0l0,0l0,0h0l0,0v0l0,0l0,0h0l0,0l0,0l0,0v0l0,0v0l0,0v0l0,0l0,0l0,0v0v0l0,0v0h0v0l0,0v0h0v0l0,0v2.4
				c0,0.3-0.1,0.6-0.3,0.8l0,0c-0.1,0.1-0.2,0.2-0.3,0.2c12.1,15.8,19.5,39,19.6,39.2l0,0l0,0l0,0l0,0l0,0l0,0l0,0l0,0v0l0,0l0,0
				l0,0l0,0l0,0l0,0l0,0l0,0l0,0l0,0l0,0l0,0l0,0v0l0,0v0l0,0v0l0,0l0,0l0,0l0,0l0,0l0,0l0,0l0,0l0,0l0,0l0,0l0,0l0,0l0,0l0,0l0,0
				l0,0l0,0l0,0l0,0l0,0l0,0l0,0l0,0l0,0l0,0l0,0c0,0,0,0.1,0,0.1l0,0l0,0h0l0,0l0,0l0,0l0,0l0,0l0,0l0,0l0,0l0,0l0,0l0,0
				C78.7,80.7,68.6,91.3,50,91.3c-19,0-29.1-11.1-29.2-11.2C20.8,80.1,20.7,80,20.7,79.9z"/>
		</defs>
		<use xlink:href="#SVGID_1_"  style="overflow:visible;fill-rule:evenodd;clip-rule:evenodd;fill:#010101;"/>
		<clipPath id="SVGID_2_">
			<use xlink:href="#SVGID_1_"  style="overflow:visible;"/>
		</clipPath>
		<rect x="20.7" y="12.7" style="clip-path:url(#SVGID_2_);fill:#010101;" width="58.7" height="78.7"/>
	</g>
</g>
</svg>
