<?xml version="1.0" encoding="utf-8"?>
<!-- Generator: Adobe Illustrator 19.2.0, SVG Export Plug-In . SVG Version: 6.00 Build 0)  -->
<svg version="1.1" id="Capa_1" xmlns="http://www.w3.org/2000/svg" xmlns:xlink="http://www.w3.org/1999/xlink" x="0px" y="0px"
	 viewBox="0 0 100 300" style="enable-background:new 0 0 100 300;" xml:space="preserve">
<style type="text/css">
	.st0{fill:#FFFFFF;}
	.st1{fill:#B21A34;}
</style>
<g>
	<path d="M93.2,135.7c-1.3-13.9-11.1-24.1-23.5-24.1c-8.2,0-15.8,4.4-20,11.5c-4.2-7.2-11.4-11.5-19.5-11.5
		c-12.3,0-22.2,10.1-23.5,24.1c-0.1,0.6-0.5,3.9,0.7,9.1c1.8,7.6,6,14.6,12,20l30.2,27.4l30.7-27.4c6.1-5.5,10.2-12.4,12-20
		C93.8,139.6,93.3,136.3,93.2,135.7z M89.3,144.1c-1.6,7-5.4,13.3-11,18.3l-28.5,25.4l-28-25.4c-5.6-5-9.4-11.4-11-18.3
		c-1.2-5-0.7-7.8-0.7-7.8l0-0.2c1.1-12.2,9.6-21.1,20.2-21.1c7.8,0,14.7,4.8,18,12.5l1.5,3.6l1.5-3.6c3.2-7.6,10.5-12.5,18.5-12.5
		c10.6,0,19.1,8.9,20.2,21.2C90,136.3,90.4,139.1,89.3,144.1z"/>
	<path d="M33.3,121.8c-9.2,0-16.7,7.5-16.7,16.7c0,0.9,0.7,1.7,1.7,1.7c0.9,0,1.7-0.7,1.7-1.7c0-7.4,6-13.4,13.4-13.4
		c0.9,0,1.7-0.7,1.7-1.7S34.2,121.8,33.3,121.8z"/>
</g>
<g>
	<path class="st0" d="M93.2,35.7C92,21.8,82.1,11.7,69.8,11.7c-8.2,0-15.8,4.4-20,11.5C45.6,16,38.3,11.7,30.2,11.7
		C17.9,11.7,8,21.8,6.8,35.7c-0.1,0.6-0.5,3.9,0.7,9.1c1.8,7.6,6,14.6,12,20l30.2,27.4l30.7-27.4c6.1-5.5,10.2-12.4,12-20
		C93.8,39.6,93.3,36.3,93.2,35.7z M89.3,44.1c-1.6,7-5.4,13.3-11,18.3L49.8,87.9l-28-25.4c-5.6-5-9.4-11.4-11-18.3
		c-1.2-5-0.7-7.8-0.7-7.8l0-0.2C11.2,23.9,19.6,15,30.2,15c7.8,0,14.7,4.8,18,12.5l1.5,3.6l1.5-3.6C54.5,19.9,61.8,15,69.8,15
		c10.6,0,19.1,8.9,20.2,21.2C90,36.3,90.4,39.1,89.3,44.1z"/>
	<path class="st0" d="M33.3,21.8c-9.2,0-16.7,7.5-16.7,16.7c0,0.9,0.7,1.7,1.7,1.7c0.9,0,1.7-0.7,1.7-1.7c0-7.4,6-13.4,13.4-13.4
		c0.9,0,1.7-0.7,1.7-1.7S34.2,21.8,33.3,21.8z"/>
</g>
<g>
	<path class="st1" d="M93.2,235.7c-1.3-13.9-11.1-24.1-23.5-24.1c-8.2,0-15.8,4.4-20,11.5c-4.2-7.2-11.4-11.5-19.5-11.5
		c-12.3,0-22.2,10.1-23.5,24.1c-0.1,0.6-0.5,3.9,0.7,9.1c1.8,7.6,6,14.6,12,20l30.2,27.4l30.7-27.4c6.1-5.5,10.2-12.4,12-20
		C93.8,239.6,93.3,236.3,93.2,235.7z M89.3,244.1c-1.6,7-5.4,13.3-11,18.3l-28.5,25.4l-28-25.4c-5.6-5-9.4-11.4-11-18.3
		c-1.2-5-0.7-7.8-0.7-7.8l0-0.2c1.1-12.2,9.6-21.1,20.2-21.1c7.8,0,14.7,4.8,18,12.5l1.5,3.6l1.5-3.6c3.2-7.6,10.5-12.5,18.5-12.5
		c10.6,0,19.1,8.9,20.2,21.2C90,236.3,90.4,239.1,89.3,244.1z"/>
	<path class="st1" d="M33.3,221.8c-9.2,0-16.7,7.5-16.7,16.7c0,0.9,0.7,1.7,1.7,1.7c0.9,0,1.7-0.7,1.7-1.7c0-7.4,6-13.4,13.4-13.4
		c0.9,0,1.7-0.7,1.7-1.7S34.2,221.8,33.3,221.8z"/>
</g>
</svg>
