<?xml version="1.0" encoding="utf-8"?>
<!-- Generator: Adobe Illustrator 19.2.0, SVG Export Plug-In . SVG Version: 6.00 Build 0)  -->
<svg version="1.1" id="Capa_1" xmlns="http://www.w3.org/2000/svg" xmlns:xlink="http://www.w3.org/1999/xlink" x="0px" y="0px"
	 viewBox="0 0 100 300" style="enable-background:new 0 0 100 300;" xml:space="preserve">
<style type="text/css">
	.st0{fill:#FFFFFF;}
	.st1{fill:#B21A34;}
</style>
<g>
	<path d="M91.8,161.6c-1.3,0-2.3,1-2.3,2.3v20.3c0,3.8-3.1,6.8-6.8,6.8H18.6c-3.8,0-6.8-3.1-6.8-6.8v-59.5c0-3.8,3.1-6.8,6.8-6.8
		h20.3c1.3,0,2.3-1,2.3-2.3c0-1.3-1-2.3-2.3-2.3H18.6c-6.3,0-11.4,5.1-11.4,11.4v59.5c0,6.3,5.1,11.4,11.4,11.4h64.1
		c6.3,0,11.4-5.1,11.4-11.4v-20.3C94.1,162.7,93,161.6,91.8,161.6z"/>
	<path d="M93.2,107.4c-4-4-10.5-4-14.5,0l-40.7,40.7c-0.3,0.3-0.5,0.6-0.6,1l-5.4,19.3c-0.2,0.8,0,1.6,0.6,2.2
		c0.6,0.6,1.4,0.8,2.2,0.6l19.3-5.4c0.4-0.1,0.7-0.3,1-0.6l40.7-40.7c4-4,4-10.5,0-14.5L93.2,107.4z M42.9,149.6l33.3-33.3L87,127
		l-33.3,33.3L42.9,149.6z M40.7,153.9l8.6,8.6l-11.9,3.3L40.7,153.9z M92.6,121.4l-2.4,2.4l-10.8-10.8l2.4-2.4
		c2.2-2.2,5.8-2.2,8.1,0l2.7,2.7C94.8,115.5,94.8,119.2,92.6,121.4z"/>
</g>
<g>
	<path class="st0" d="M91.8,61.6c-1.3,0-2.3,1-2.3,2.3v20.3c0,3.8-3.1,6.8-6.8,6.8H18.6c-3.8,0-6.8-3.1-6.8-6.8V24.7
		c0-3.8,3.1-6.8,6.8-6.8h20.3c1.3,0,2.3-1,2.3-2.3c0-1.3-1-2.3-2.3-2.3H18.6c-6.3,0-11.4,5.1-11.4,11.4v59.5
		c0,6.3,5.1,11.4,11.4,11.4h64.1c6.3,0,11.4-5.1,11.4-11.4V63.9C94.1,62.7,93,61.6,91.8,61.6z"/>
	<path class="st0" d="M93.2,7.4c-4-4-10.5-4-14.5,0L37.9,48.1c-0.3,0.3-0.5,0.6-0.6,1l-5.4,19.3c-0.2,0.8,0,1.6,0.6,2.2
		c0.6,0.6,1.4,0.8,2.2,0.6l19.3-5.4c0.4-0.1,0.7-0.3,1-0.6l40.7-40.7c4-4,4-10.5,0-14.5L93.2,7.4z M42.9,49.6l33.3-33.3L87,27
		L53.6,60.4L42.9,49.6z M40.7,53.9l8.6,8.6l-11.9,3.3L40.7,53.9z M92.6,21.4l-2.4,2.4L79.4,13.1l2.4-2.4c2.2-2.2,5.8-2.2,8.1,0
		l2.7,2.7C94.8,15.5,94.8,19.2,92.6,21.4z"/>
</g>
<g>
	<path class="st1" d="M91.8,261.6c-1.3,0-2.3,1-2.3,2.3v20.3c0,3.8-3.1,6.8-6.8,6.8H18.6c-3.8,0-6.8-3.1-6.8-6.8v-59.5
		c0-3.8,3.1-6.8,6.8-6.8h20.3c1.3,0,2.3-1,2.3-2.3c0-1.3-1-2.3-2.3-2.3H18.6c-6.3,0-11.4,5.1-11.4,11.4v59.5
		c0,6.3,5.1,11.4,11.4,11.4h64.1c6.3,0,11.4-5.1,11.4-11.4v-20.3C94.1,262.7,93,261.6,91.8,261.6z"/>
	<path class="st1" d="M93.2,207.4c-4-4-10.5-4-14.5,0l-40.7,40.7c-0.3,0.3-0.5,0.6-0.6,1l-5.4,19.3c-0.2,0.8,0,1.6,0.6,2.2
		c0.6,0.6,1.4,0.8,2.2,0.6l19.3-5.4c0.4-0.1,0.7-0.3,1-0.6l40.7-40.7c4-4,4-10.5,0-14.5L93.2,207.4z M42.9,249.6l33.3-33.3L87,227
		l-33.3,33.3L42.9,249.6z M40.7,253.9l8.6,8.6l-11.9,3.3L40.7,253.9z M92.6,221.4l-2.4,2.4l-10.8-10.8l2.4-2.4
		c2.2-2.2,5.8-2.2,8.1,0l2.7,2.7C94.8,215.5,94.8,219.2,92.6,221.4z"/>
</g>
</svg>
