<?xml version="1.0" encoding="utf-8"?>
<!-- Generator: Adobe Illustrator 19.2.0, SVG Export Plug-In . SVG Version: 6.00 Build 0)  -->
<svg version="1.1" id="Layer_1" xmlns="http://www.w3.org/2000/svg" xmlns:xlink="http://www.w3.org/1999/xlink" x="0px" y="0px"
	 viewBox="0 0 111.8 111.8" style="enable-background:new 0 0 111.8 111.8;" xml:space="preserve">
<g id="Layer_x0020_1">
	<g id="_1572561469776">
		<g>
			<g>
				<path style="fill:#C61E3B;" d="M104.6,13.7h-4.2l-0.5-5.1c-0.2-0.9-0.9-1.5-1.6-1.5H77.1c-0.9,0-1.6,0.7-1.6,1.6v4.9H46.7
					L44,10.8c-0.2-0.2-0.7-0.4-1.1-0.4H38V7.1h-3.3v3.3H23.4h-0.2l-6.4,0.7v-4h-3.1v4.4l-5.1,0.5c-0.9,0-1.5,0.7-1.5,1.6v21
					c0,0.9,0.7,1.6,1.6,1.6h4.9V65l-2.9,2.7c-0.2,0.4-0.4,0.7-0.4,1.1v4.9H7.1v3.3h3.3v11.3c0,0.2,0,0.2,0,0.2l0.7,6.4h-4v3.3h4.4
					l0.5,4.9c0,0.9,0.7,1.5,1.6,1.5h21c0.9,0,1.6-0.7,1.6-1.6v-4.7H65l2.7,2.7c0.4,0.4,0.7,0.4,1.1,0.4h4.9v3.3h3.3v-3.3h11.3
					c0.2,0,0.2,0,0.2,0l6.4-0.5v3.8h3.3v-4.2l4.9-0.5c0.9-0.2,1.5-0.9,1.5-1.6V77.1c0-0.9-0.7-1.6-1.6-1.6h-4.7V46.7L101,44
					c0.4-0.2,0.4-0.7,0.4-1.1V38h3.3v-3.3h-3.3V23.4v-0.2l-0.5-6.4h3.8V13.7z M55.9,16.8h19.5v16.4h-3.3c-0.9,0-1.6,0.5-1.6,1.5
					H55.9V16.8z M10.4,33.2v-4.9h4.9V25h-4.9v-3.3h4.9v-3.3h-4.9v-3.3l13.1-1.5h18.6l2.7,2.7c0.4,0.4,0.7,0.4,1.3,0.4h6.4v11.5h-8
					c-0.7,0-1.3,0.4-1.5,0.9L38.7,38h-2.4v-3.3c0-0.9-0.7-1.5-1.6-1.5H10.4z M34.7,41.3v14.6H16.8V36.3h16.4v3.3
					C33.2,40.5,33.8,41.3,34.7,41.3z M34.7,75.4c-0.9,0-1.5,0.7-1.5,1.6v24.3h-4.9v-4.7H25v4.7h-3.3v-4.7h-3.3v4.7h-3.3l-1.5-13
					V69.6l2.7-2.7c0.4-0.4,0.4-0.7,0.4-1.1v-6.6h11.5v8c0,0.7,0.4,1.3,0.9,1.6l8.8,4.4v2.2H34.7z M55.9,95H36.3V78.7h3.3
					c0.9,0,1.6-0.7,1.6-1.6h14.6V95z M57.5,73.8H41.3v-1.6c0-0.5-0.4-1.1-0.9-1.5l-8.8-4.4v-7.1h4.7c0.9,0,1.6-0.7,1.6-1.6V41.3h1.6
					c0.7,0,1.3-0.4,1.5-0.9l4.4-8.8h7.1v4.7c0,0.9,0.7,1.6,1.6,1.6h16.3v1.6c0,0.7,0.4,1.3,0.9,1.5l8.9,4.4v7.1h-4.9
					c-0.9,0-1.6,0.7-1.6,1.6v16.3h-1.6c-0.5,0-1.1,0.4-1.5,0.9l-4.4,8.9h-7.1v-4.9C59.2,74.5,58.4,73.8,57.5,73.8z M77.1,70.5V55.9
					H95v19.5H78.7v-3.3C78.7,71.2,78,70.5,77.1,70.5z M101.3,78.7v4.9h-4.7v3.1h4.7V90h-4.7v3.3h4.7v3.5l-13,1.5H69.6l-2.7-2.9
					c-0.4-0.2-0.7-0.4-1.1-0.4h-6.6V83.6h8c0.7,0,1.3-0.4,1.6-0.9l4.4-8.9h2.2v3.3c0,0.9,0.7,1.6,1.6,1.6H101.3z M98.2,42.2
					l-2.9,2.7c-0.2,0.4-0.4,0.7-0.4,1.3v6.4H83.6v-8c0-0.7-0.4-1.3-0.9-1.5l-8.9-4.4v-2.4h3.3c0.9,0,1.6-0.7,1.6-1.6V10.4h4.9v4.9
					h3.1v-4.9H90v4.9h3.3v-4.9h3.5l1.5,13.1V42.2z"/>
			</g>
		</g>
		<g>
			<g>
				<rect x="80.3" y="59.2" style="fill:#C61E3B;" width="3.3" height="3.3"/>
			</g>
		</g>
		<g>
			<g>
				<rect x="49.5" y="80.3" style="fill:#C61E3B;" width="3.3" height="3.3"/>
			</g>
		</g>
		<g>
			<g>
				<rect x="28.3" y="49.5" style="fill:#C61E3B;" width="3.3" height="3.3"/>
			</g>
		</g>
		<g>
			<g>
				<rect x="59.2" y="28.3" style="fill:#C61E3B;" width="3.3" height="3.3"/>
			</g>
		</g>
	</g>
	<rect style="fill:none;" width="111.8" height="111.8"/>
</g>
</svg>
