<?xml version="1.0" encoding="utf-8"?>
<!-- Generator: Adobe Illustrator 19.2.0, SVG Export Plug-In . SVG Version: 6.00 Build 0)  -->
<svg version="1.1" id="Capa_1" xmlns="http://www.w3.org/2000/svg" xmlns:xlink="http://www.w3.org/1999/xlink" x="0px" y="0px"
	 viewBox="0 0 100 300" style="enable-background:new 0 0 100 300;" xml:space="preserve">
<style type="text/css">
	.st0{fill:#FFFFFF;}
	.st1{fill:#B21A34;}
</style>
<g>
	<g>
		<g id="shopping-cart">
			<path d="M35.1,172.4c-4.1,0-7.5,3.4-7.5,7.5c0,4.1,3.4,7.5,7.5,7.5s7.5-3.4,7.5-7.5C42.5,175.8,39.2,172.4,35.1,172.4z
				 M12.7,112.7v7.5h7.5l13.4,28.4l-5.2,9c-0.4,1.1-0.7,2.6-0.7,3.7c0,4.1,3.4,7.5,7.5,7.5h44.8v-7.5H36.6c-0.4,0-0.7-0.4-0.7-0.7
				v-0.4l3.4-6.3h27.6c3,0,5.2-1.5,6.3-3.7l13.4-24.3c0.7-0.7,0.7-1.1,0.7-1.9c0-2.2-1.5-3.7-3.7-3.7H28.3l-3.4-7.5H12.7z
				 M72.4,172.4c-4.1,0-7.5,3.4-7.5,7.5c0,4.1,3.4,7.5,7.5,7.5s7.5-3.4,7.5-7.5C79.9,175.8,76.5,172.4,72.4,172.4z"/>
		</g>
	</g>
</g>
<g>
	<g>
		<g id="shopping-cart_1_">
			<path class="st0" d="M35.1,72.4c-4.1,0-7.5,3.4-7.5,7.5s3.4,7.5,7.5,7.5s7.5-3.4,7.5-7.5S39.2,72.4,35.1,72.4z M12.7,12.7v7.5
				h7.5l13.4,28.4l-5.2,9c-0.4,1.1-0.7,2.6-0.7,3.7c0,4.1,3.4,7.5,7.5,7.5h44.8v-7.5H36.6c-0.4,0-0.7-0.4-0.7-0.7v-0.4l3.4-6.3h27.6
				c3,0,5.2-1.5,6.3-3.7l13.4-24.3c0.7-0.7,0.7-1.1,0.7-1.9c0-2.2-1.5-3.7-3.7-3.7H28.3L25,12.7H12.7z M72.4,72.4
				c-4.1,0-7.5,3.4-7.5,7.5s3.4,7.5,7.5,7.5s7.5-3.4,7.5-7.5S76.5,72.4,72.4,72.4z"/>
		</g>
	</g>
</g>
<g>
	<g>
		<g id="shopping-cart_2_">
			<path class="st1" d="M35.1,272.4c-4.1,0-7.5,3.4-7.5,7.5s3.4,7.5,7.5,7.5s7.5-3.4,7.5-7.5S39.2,272.4,35.1,272.4z M12.7,212.7
				v7.5h7.5l13.4,28.4l-5.2,9c-0.4,1.1-0.7,2.6-0.7,3.7c0,4.1,3.4,7.5,7.5,7.5h44.8v-7.5H36.6c-0.4,0-0.7-0.4-0.7-0.7v-0.4l3.4-6.3
				h27.6c3,0,5.2-1.5,6.3-3.7l13.4-24.3c0.7-0.7,0.7-1.1,0.7-1.9c0-2.2-1.5-3.7-3.7-3.7H28.3l-3.4-7.5H12.7z M72.4,272.4
				c-4.1,0-7.5,3.4-7.5,7.5s3.4,7.5,7.5,7.5s7.5-3.4,7.5-7.5S76.5,272.4,72.4,272.4z"/>
		</g>
	</g>
</g>
</svg>
