<?xml version="1.0" encoding="utf-8"?>
<!-- Generator: Adobe Illustrator 19.2.0, SVG Export Plug-In . SVG Version: 6.00 Build 0)  -->
<svg version="1.1" id="Layer_1" xmlns="http://www.w3.org/2000/svg" xmlns:xlink="http://www.w3.org/1999/xlink" x="0px" y="0px"
	 viewBox="0 0 89.2 89.2" style="enable-background:new 0 0 89.2 89.2;" xml:space="preserve">
<style type="text/css">
	.st0{fill:#FFFDFD;}
	.st1{fill:#C61E3B;}
	.st2{fill:#FFFFFF;}
</style>
<circle class="st0" cx="43.6" cy="45.6" r="32.3"/>
<path class="st1" d="M87.2,45.6C87.2,21.5,67.7,2,43.6,2S0,21.5,0,45.6s19.5,43.6,43.6,43.6S87.2,69.7,87.2,45.6z"/>
<path class="st2" d="M61.7,39.3H49.9V27.5c0-2.9-2.4-5.3-5.3-5.3s-5.3,2.4-5.3,5.3v11.8H27.5c-2.9,0-5.3,2.4-5.3,5.3
	s2.4,5.3,5.3,5.3h11.8v11.8c0,2.9,2.4,5.3,5.3,5.3s5.3-2.4,5.3-5.3V49.9h11.8c2.9,0,5.3-2.4,5.3-5.3S64.6,39.3,61.7,39.3z"/>
</svg>
