<?xml version="1.0" encoding="utf-8"?>
<!-- Generator: Adobe Illustrator 19.2.0, SVG Export Plug-In . SVG Version: 6.00 Build 0)  -->
<svg version="1.1" id="Layer_1" xmlns="http://www.w3.org/2000/svg" xmlns:xlink="http://www.w3.org/1999/xlink" x="0px" y="0px"
	 viewBox="0 0 111.8 111.8" style="enable-background:new 0 0 111.8 111.8;" xml:space="preserve">
<g id="Layer_x0020_1">
	<g id="_1572726085664">
		<g>
			<g>
				<path style="fill:#C61E3B;" d="M104.1,6.9c-0.5-0.2-1.2-0.2-2,0L66.9,27.8c-0.7,0.7-1.2,1.7-0.5,2.7c0.5,1,1.7,1.2,2.5,0.7
					l25.3-15.1L47.1,64.9L23.8,58l30.5-18.1c1-0.7,1.2-1.7,0.7-2.7s-1.7-1.2-2.7-0.7L18.1,56.7c-0.7,0.5-1,1.2-1,2
					c0.2,0.7,0.7,1.2,1.5,1.5l27.8,8.7l12.4,22.3l0,0c0.2,0.5,0.5,0.7,1,1c0.2,0,0.5,0,0.7,0c0.5,0,1-0.2,1.2-0.5l14.4-13.9
					l26.5,8.2c0.2,0,0.5,0,0.5,0c0.5,0,1,0,1.2-0.2c0.5-0.5,0.7-1,0.7-1.5V8.7C105.1,7.9,104.8,7.4,104.1,6.9z M59,69.9
					c-0.2,0.5-0.5,0.7-0.5,1.2v11.6l-8.4-15.4L87.2,29L59,69.9z M62.4,85.7V73.6l9.4,3L62.4,85.7z M101.3,81.5L63.4,70.1l37.9-54.5
					V81.5z"/>
			</g>
		</g>
		<g>
			<g>
				<path style="fill:#C61E3B;" d="M38.4,73.6c-0.7-0.7-2-0.7-2.7,0L17.6,91.4c-0.7,0.7-0.7,2,0,2.7c0.5,0.5,1,0.5,1.5,0.5
					c0.5,0,1,0,1.2-0.5l18.1-17.8C39.1,75.6,39.1,74.3,38.4,73.6z"/>
			</g>
		</g>
		<g>
			<g>
				<path style="fill:#C61E3B;" d="M14.4,97.4c-0.7-0.7-2-0.7-2.7,0l-4.2,4.5c-0.7,0.7-0.7,2,0,2.7c0.2,0.2,0.7,0.5,1.2,0.5
					s1-0.2,1.2-0.5l4.5-4.5C15.1,99.4,15.1,98.1,14.4,97.4z"/>
			</g>
		</g>
		<g>
			<g>
				<path style="fill:#C61E3B;" d="M34.2,101.6c-0.5-0.2-1-0.5-1.5-0.5s-1,0.2-1.2,0.5c-0.5,0.5-0.5,1-0.5,1.5c0,0.5,0,1,0.5,1.2
					c0.2,0.5,0.7,0.7,1.2,0.7s1-0.2,1.5-0.7c0.2-0.2,0.5-0.7,0.5-1.2C34.7,102.6,34.4,102.1,34.2,101.6z"/>
			</g>
		</g>
		<g>
			<g>
				<path style="fill:#C61E3B;" d="M48.6,87.5c-1-0.7-2-0.7-2.7,0l-9.7,9.4c-0.7,0.7-0.7,2,0,2.7c0.5,0.5,1,0.5,1.5,0.5s1,0,1.2-0.5
					l9.7-9.4C49.3,89.4,49.3,88.2,48.6,87.5z"/>
			</g>
		</g>
		<g>
			<g>
				<path style="fill:#C61E3B;" d="M81.3,86.7c-0.7-0.7-2-0.7-2.7,0l-9.7,9.4c-0.7,0.7-0.7,2,0,2.7c0.5,0.5,1,0.5,1.5,0.5
					s1,0,1.2-0.5l9.7-9.4C82,88.7,82,87.5,81.3,86.7z"/>
			</g>
		</g>
		<g>
			<g>
				<path style="fill:#C61E3B;" d="M61.2,33c-0.2-0.5-0.7-0.5-1.2-0.5c-0.7,0-1.2,0-1.5,0.5c-0.2,0.2-0.5,0.7-0.5,1.2
					c0,0.5,0.2,1,0.5,1.5c0.2,0.2,0.7,0.5,1.5,0.5c0.5,0,1-0.2,1.2-0.5c0.2-0.5,0.5-1,0.5-1.5C61.7,33.7,61.5,33.2,61.2,33z"/>
			</g>
		</g>
	</g>
	<rect style="fill:none;" width="111.8" height="111.8"/>
</g>
</svg>
