<?xml version="1.0" encoding="utf-8"?>
<!-- Generator: Adobe Illustrator 19.2.0, SVG Export Plug-In . SVG Version: 6.00 Build 0)  -->
<svg version="1.1" id="Capa_1" xmlns="http://www.w3.org/2000/svg" xmlns:xlink="http://www.w3.org/1999/xlink" x="0px" y="0px"
	 viewBox="0 0 100 300" style="enable-background:new 0 0 100 300;" xml:space="preserve">
<style type="text/css">
	.st0{fill:#FFFFFF;}
	.st1{fill:#B21A34;}
</style>
<g>
	<g>
		<g>
			<path d="M50,116c-13.6,0-24.6,11-24.6,24.6c0,16.8,22,41.5,23,42.6c0.9,1,2.4,1,3.3,0c0.9-1,23-25.8,23-42.6
				C74.6,127.1,63.6,116,50,116z M50,153c-6.8,0-12.4-5.6-12.4-12.4c0-6.8,5.6-12.4,12.4-12.4s12.4,5.6,12.4,12.4S56.8,153,50,153z"
				/>
		</g>
	</g>
</g>
<g>
	<g>
		<g>
			<path class="st0" d="M50,16c-13.6,0-24.6,11-24.6,24.6c0,16.8,22,41.5,23,42.6c0.9,1,2.4,1,3.3,0c0.9-1,23-25.8,23-42.6
				C74.6,27.1,63.6,16,50,16z M50,53c-6.8,0-12.4-5.6-12.4-12.4S43.2,28.3,50,28.3s12.4,5.6,12.4,12.4S56.8,53,50,53z"/>
		</g>
	</g>
</g>
<g>
	<g>
		<g>
			<path class="st1" d="M50,216c-13.6,0-24.6,11-24.6,24.6c0,16.8,22,41.5,23,42.6c0.9,1,2.4,1,3.3,0c0.9-1,23-25.8,23-42.6
				C74.6,227.1,63.6,216,50,216z M50,253c-6.8,0-12.4-5.6-12.4-12.4c0-6.8,5.6-12.4,12.4-12.4s12.4,5.6,12.4,12.4S56.8,253,50,253z"
				/>
		</g>
	</g>
</g>
</svg>
