<?xml version="1.0" encoding="utf-8"?>
<!-- Generator: Adobe Illustrator 19.2.0, SVG Export Plug-In . SVG Version: 6.00 Build 0)  -->
<svg version="1.1" id="Layer_1" xmlns="http://www.w3.org/2000/svg" xmlns:xlink="http://www.w3.org/1999/xlink" x="0px" y="0px"
	 viewBox="0 0 85.3 117.4" style="enable-background:new 0 0 85.3 117.4;" xml:space="preserve">
<g id="Layer_x0020_1">
	<path style="fill:#C52828;" d="M81.2,62c-3.1-4.9-7-9.4-11.5-13.1l0,0l0,0C59.7,40.1,54,27.6,54,14.3c0-0.6,0-1.2,0-1.8
		c0.2-4.1,1-8.4,2.2-12.5c-3.9,2-7.6,4.5-10.8,7.2c-3.5,3.1-6.5,6.3-9,10.2c-5.1,7.4-7.8,16-8,24.9c0,0.2,0,0.2,0,0.4
		c0,8.6,2.5,17,7.2,24.3c0.6,0.8,1.2,1.6,1.8,2.7c-1.6-0.8-2.9-1.6-4.3-2.7c-7-4.9-11.7-12.9-12.5-21.5c-0.4,0.2-0.8,0.6-1.2,0.8
		C11.5,51.1,5.3,58.3,2,67.1c-1.4,3.7-2,7.8-2,11.7c0,20,16.6,36.4,38,38.4c1.4,0.2,3.1,0.2,4.7,0.2c2,0,3.9,0,5.9-0.4
		c15.1-1.6,28.2-11.2,34.2-25.4C86.7,82,86.1,71.2,81.2,62z"/>
	<path style="fill:#F44335;" d="M76.1,78.7c0,4.5-0.8,8.8-2.2,12.9c-5.9,14.1-19,23.7-34.2,25.4c-0.6,0.2-1.2,0.2-1.6,0.2
		c-21.5-2-38-18.4-38-38.4c0-3.9,0.6-8,2-11.7c3.3-8.8,9.4-16,17.4-20.7c0.4-0.2,0.8-0.6,1.2-0.8c0.8,8.6,5.5,16.6,12.5,21.5
		c1.4,1,2.7,1.8,4.3,2.7c-0.6-1-1.2-1.8-1.8-2.7c-4.7-7.4-7.2-15.7-7.2-24.3c0-0.2,0-0.2,0-0.4c0.2-9,2.9-17.6,8-24.9
		c2.5-3.9,5.5-7.2,9-10.2c-0.4,1.8-0.6,3.7-0.6,5.3c0,0.6,0,1.2,0,1.8c0.2,13.3,5.9,25.8,15.7,34.6l0,0l0,0C65,52.6,68.9,57.1,72,62
		C74.6,67.3,76.1,73,76.1,78.7z"/>
</g>
</svg>
