<?xml version="1.0" encoding="utf-8"?>
<!-- Generator: Adobe Illustrator 19.2.0, SVG Export Plug-In . SVG Version: 6.00 Build 0)  -->
<svg version="1.1" id="Capa_1" xmlns="http://www.w3.org/2000/svg" xmlns:xlink="http://www.w3.org/1999/xlink" x="0px" y="0px"
	 viewBox="0 0 100 300" style="enable-background:new 0 0 100 300;" xml:space="preserve">
<g>
	<path d="M70.7,161.1c-4.5,0-8.4,2.1-11,5.4l-21.3-11.9c0.5-1.4,0.8-3,0.8-4.6c0-1.6-0.3-3.1-0.8-4.6l21.3-11.9
		c2.5,3.3,6.5,5.4,11,5.4c7.6,0,13.9-6.2,13.9-13.9s-6.2-13.9-13.9-13.9s-13.9,6.2-13.9,13.9c0,1.6,0.3,3.2,0.8,4.6l-21.3,11.9
		c-2.5-3.3-6.5-5.4-11-5.4c-7.6,0-13.9,6.2-13.9,13.9s6.2,13.9,13.9,13.9c4.5,0,8.5-2.1,11-5.5l21.3,11.9c-0.5,1.5-0.8,3-0.8,4.6
		c0,7.6,6.2,13.9,13.9,13.9s13.9-6.2,13.9-13.9S78.3,161.1,70.7,161.1z M70.7,115.6c5.3,0,9.5,4.3,9.5,9.5c0,5.3-4.3,9.5-9.5,9.5
		c-5.3,0-9.5-4.3-9.5-9.5C61.2,119.8,65.5,115.6,70.7,115.6z M25.3,159.5c-5.3,0-9.5-4.3-9.5-9.5s4.3-9.5,9.5-9.5s9.5,4.3,9.5,9.5
		S30.5,159.5,25.3,159.5z M70.7,184.4c-5.3,0-9.5-4.3-9.5-9.5s4.3-9.5,9.5-9.5c5.3,0,9.5,4.3,9.5,9.5S75.9,184.4,70.7,184.4z"/>
</g>
<g>
	<path style="fill:#FFFFFF;" d="M70.7,61.1c-4.5,0-8.4,2.1-11,5.4L38.4,54.6c0.5-1.4,0.8-3,0.8-4.6c0-1.6-0.3-3.1-0.8-4.6l21.3-11.9
		c2.5,3.3,6.5,5.4,11,5.4c7.6,0,13.9-6.2,13.9-13.9s-6.2-13.9-13.9-13.9s-13.9,6.2-13.9,13.9c0,1.6,0.3,3.2,0.8,4.6L36.3,41.6
		c-2.5-3.3-6.5-5.4-11-5.4c-7.6,0-13.9,6.2-13.9,13.9s6.2,13.9,13.9,13.9c4.5,0,8.5-2.1,11-5.5l21.3,11.9c-0.5,1.5-0.8,3-0.8,4.6
		c0,7.6,6.2,13.9,13.9,13.9s13.9-6.2,13.9-13.9S78.3,61.1,70.7,61.1z M70.7,15.6c5.3,0,9.5,4.3,9.5,9.5s-4.3,9.5-9.5,9.5
		c-5.3,0-9.5-4.3-9.5-9.5S65.5,15.6,70.7,15.6z M25.3,59.5c-5.3,0-9.5-4.3-9.5-9.5s4.3-9.5,9.5-9.5s9.5,4.3,9.5,9.5
		S30.5,59.5,25.3,59.5z M70.7,84.4c-5.3,0-9.5-4.3-9.5-9.5c0-5.3,4.3-9.5,9.5-9.5c5.3,0,9.5,4.3,9.5,9.5
		C80.2,80.2,75.9,84.4,70.7,84.4z"/>
</g>
<g>
	<path style="fill:#B21A34;" d="M70.7,261.1c-4.5,0-8.4,2.1-11,5.4l-21.3-11.9c0.5-1.4,0.8-3,0.8-4.6c0-1.6-0.3-3.1-0.8-4.6
		l21.3-11.9c2.5,3.3,6.5,5.4,11,5.4c7.6,0,13.9-6.2,13.9-13.9s-6.2-13.9-13.9-13.9s-13.9,6.2-13.9,13.9c0,1.6,0.3,3.2,0.8,4.6
		l-21.3,11.9c-2.5-3.3-6.5-5.4-11-5.4c-7.6,0-13.9,6.2-13.9,13.9s6.2,13.9,13.9,13.9c4.5,0,8.5-2.1,11-5.5l21.3,11.9
		c-0.5,1.5-0.8,3-0.8,4.6c0,7.6,6.2,13.9,13.9,13.9s13.9-6.2,13.9-13.9S78.3,261.1,70.7,261.1z M70.7,215.6c5.3,0,9.5,4.3,9.5,9.5
		s-4.3,9.5-9.5,9.5c-5.3,0-9.5-4.3-9.5-9.5S65.5,215.6,70.7,215.6z M25.3,259.5c-5.3,0-9.5-4.3-9.5-9.5s4.3-9.5,9.5-9.5
		s9.5,4.3,9.5,9.5S30.5,259.5,25.3,259.5z M70.7,284.4c-5.3,0-9.5-4.3-9.5-9.5c0-5.3,4.3-9.5,9.5-9.5c5.3,0,9.5,4.3,9.5,9.5
		C80.2,280.2,75.9,284.4,70.7,284.4z"/>
</g>
</svg>
