<?xml version="1.0" encoding="utf-8"?>
<!-- Generator: Adobe Illustrator 19.2.0, SVG Export Plug-In . SVG Version: 6.00 Build 0)  -->
<svg version="1.1" id="Layer_1" xmlns="http://www.w3.org/2000/svg" xmlns:xlink="http://www.w3.org/1999/xlink" x="0px" y="0px"
	 viewBox="0 0 100 100" style="enable-background:new 0 0 100 100;" xml:space="preserve">
<g>
	<g>
		<defs>
			<path id="SVGID_1_" d="M47.6,24.1l-8.9,12.8l-7.9-12.8H47.6z M69.1,24.1l-7.9,12.8l-8.9-12.8H69.1z M71.6,24.9l12,13h-20
				L71.6,24.9z M50,25l8.9,12.9H41.1L50,25z M12.5,40l3.2,3.9c0.3,0.4,0.7,0.6,1.2,0.5c0.5-0.1,0.8-0.4,1-0.8
				c0.2-0.4,0.1-0.9-0.2-1.3l-2.5-3.1l13.2-14.3l8,13H19.8c-0.7,0-1.3,0.6-1.3,1.3c0,0.7,0.6,1.3,1.3,1.3h17.9l3.1,12.9
				c0.1,0.6,0.6,1,1.2,1c0.1,0,0.2,0,0.3,0c0.3-0.1,0.6-0.3,0.8-0.6c0.2-0.3,0.2-0.6,0.1-1l-3-12.3h19.4l-3,12.3
				c-0.1,0.3,0,0.7,0.1,1c0.2,0.3,0.5,0.5,0.8,0.6c0.1,0,0.2,0,0.3,0c0.6,0,1.1-0.4,1.2-1l3.1-12.9h21.5L52.6,79.2l5.3-20.8
				c0.1-0.4,0-0.9-0.3-1.2c-0.3-0.3-0.8-0.4-1.2-0.3c-0.4,0.1-0.8,0.5-0.9,0.9L50,79.4l-5.5-21.6c-0.1-0.4-0.4-0.8-0.9-0.9
				c-0.4-0.1-0.9,0-1.2,0.3c-0.3,0.3-0.4,0.8-0.3,1.2l5.3,20.8L24,50.2c-0.4-0.5-1.2-0.6-1.8-0.2c-0.5,0.4-0.6,1.2-0.2,1.8l27,33.5
				l0,0c0,0.1,0.1,0.1,0.1,0.1c0,0,0,0,0,0.1h0l0,0c0,0,0,0,0,0c0.1,0.1,0.2,0.1,0.3,0.1c0,0,0,0,0.1,0c0,0,0,0,0.1,0c0,0,0,0,0,0
				c0.1,0,0.2,0,0.3,0h0c0.1,0,0.2,0,0.3,0c0,0,0,0,0,0c0,0,0.1,0,0.1,0c0,0,0.1,0,0.1-0.1c0,0,0.1,0,0.1-0.1c0,0,0,0,0,0
				c0.1,0,0.1-0.1,0.1-0.2c0,0,0,0,0.1-0.1L87.5,40c0-0.1,0.1-0.1,0.1-0.2c0,0,0,0,0-0.1c0.1-0.1,0.1-0.3,0.1-0.4c0,0,0-0.1,0-0.1
				c0-0.1,0-0.2-0.1-0.3c0,0,0-0.1,0-0.1c0,0,0-0.1,0-0.1c-0.1-0.1-0.1-0.2-0.2-0.3L72.3,22c-0.1-0.1-0.2-0.2-0.3-0.2c0,0,0,0,0,0h0
				c-0.2-0.1-0.4-0.2-0.7-0.2H28.6c-0.2,0-0.5,0.1-0.7,0.2c-0.1,0.1-0.2,0.1-0.3,0.2L12.6,38.3C12.2,38.8,12.2,39.5,12.5,40L12.5,40
				z"/>
		</defs>
		<clipPath id="SVGID_2_">
			<use xlink:href="#SVGID_1_"  style="overflow:visible;"/>
		</clipPath>
		<linearGradient id="SVGID_3_" gradientUnits="userSpaceOnUse" x1="23.2979" y1="76.9112" x2="76.6555" y2="30.352">
			<stop  offset="0" style="stop-color:#A01D26"/>
			<stop  offset="1" style="stop-color:#F15757"/>
		</linearGradient>
		<rect x="12.2" y="21.6" style="clip-path:url(#SVGID_2_);fill:url(#SVGID_3_);" width="75.6" height="64.2"/>
	</g>
	<g>
		<defs>
			<path id="SVGID_4_" d="M77.2,76.3c-0.3,0.1-0.5,0.3-0.6,0.6l-1,2.2l-1-2.2c-0.1-0.3-0.3-0.5-0.6-0.6l-2.2-1.1l2.2-1
				c0.3-0.1,0.5-0.3,0.6-0.6l1-2.2l1,2.2c0.1,0.3,0.3,0.5,0.6,0.6l2.2,1L77.2,76.3z M78.7,72.2l-2-4.1c-0.2-0.4-0.7-0.7-1.1-0.7
				s-0.9,0.3-1.1,0.7l-2,4.1l-4.1,2c-0.4,0.2-0.7,0.7-0.7,1.1s0.3,0.9,0.7,1.1l4.1,2l2,4.1c0.2,0.4,0.7,0.7,1.1,0.7s0.9-0.3,1.1-0.7
				l2-4.1l4.1-2c0.4-0.2,0.7-0.7,0.7-1.1s-0.3-0.9-0.7-1.1L78.7,72.2z"/>
		</defs>
		<clipPath id="SVGID_5_">
			<use xlink:href="#SVGID_4_"  style="overflow:visible;"/>
		</clipPath>
		<linearGradient id="SVGID_6_" gradientUnits="userSpaceOnUse" x1="69.1915" y1="80.0109" x2="81.9699" y2="70.5328">
			<stop  offset="0" style="stop-color:#A01D26"/>
			<stop  offset="1" style="stop-color:#F15757"/>
		</linearGradient>
		<rect x="67.6" y="67.3" style="clip-path:url(#SVGID_5_);fill:url(#SVGID_6_);" width="15.9" height="15.9"/>
	</g>
	<g>
		<defs>
			<path id="SVGID_7_" d="M78.2,17.2c0.3-0.1,0.5-0.3,0.6-0.6l1-2.2l1,2.2c0.1,0.3,0.3,0.5,0.6,0.6l2.2,1l-2.2,1
				c-0.3,0.1-0.5,0.3-0.6,0.6l-1,2.2l-1-2.2c-0.1-0.3-0.3-0.5-0.6-0.6l-2.2-1L78.2,17.2z M72.5,19.3l4.1,2l2,4.1
				c0.2,0.4,0.7,0.7,1.1,0.7c0.5,0,0.9-0.3,1.1-0.7l2-4.1l4.1-2c0.4-0.2,0.7-0.7,0.7-1.1c0-0.5-0.3-0.9-0.7-1.1l-4.1-2l-2-4.1
				c-0.2-0.4-0.6-0.7-1.1-0.7c-0.5,0-0.9,0.3-1.1,0.7l-2,4.1l-4.1,2c-0.4,0.2-0.7,0.6-0.7,1.1C71.8,18.7,72.1,19.1,72.5,19.3
				L72.5,19.3z"/>
		</defs>
		<clipPath id="SVGID_8_">
			<use xlink:href="#SVGID_7_"  style="overflow:visible;"/>
		</clipPath>
		<linearGradient id="SVGID_9_" gradientUnits="userSpaceOnUse" x1="73.404" y1="22.9458" x2="86.1824" y2="13.4677">
			<stop  offset="0" style="stop-color:#A01D26"/>
			<stop  offset="1" style="stop-color:#F15757"/>
		</linearGradient>
		<rect x="71.8" y="10.3" style="clip-path:url(#SVGID_8_);fill:url(#SVGID_9_);" width="15.9" height="15.9"/>
	</g>
	<g>
		<defs>
			<path id="SVGID_10_" d="M18.6,76.7c0.3-0.1,0.5-0.3,0.6-0.6l1-2.2l1,2.2c0.1,0.3,0.3,0.5,0.6,0.6l2.2,1l-2.2,1
				c-0.3,0.1-0.5,0.3-0.6,0.6l-1,2.2l-1-2.2c-0.1-0.3-0.3-0.5-0.6-0.6l-2.2-1.1L18.6,76.7z M13,78.9l4.1,2l2,4.1
				c0.2,0.4,0.7,0.7,1.1,0.7c0.5,0,0.9-0.3,1.1-0.7l2-4.1l4.1-2c0.4-0.2,0.7-0.7,0.7-1.1c0-0.5-0.3-0.9-0.7-1.1l-4.1-2l-2-4.1
				c-0.2-0.4-0.7-0.7-1.1-0.7c-0.5,0-0.9,0.3-1.1,0.7l-2,4.1l-4.1,2c-0.4,0.2-0.7,0.7-0.7,1.1C12.3,78.3,12.5,78.7,13,78.9L13,78.9z
				"/>
		</defs>
		<clipPath id="SVGID_11_">
			<use xlink:href="#SVGID_10_"  style="overflow:visible;"/>
		</clipPath>
		<linearGradient id="SVGID_12_" gradientUnits="userSpaceOnUse" x1="13.8131" y1="82.5308" x2="26.6046" y2="73.0526">
			<stop  offset="0" style="stop-color:#A01D26"/>
			<stop  offset="1" style="stop-color:#F15757"/>
		</linearGradient>
		<rect x="12.3" y="69.8" style="clip-path:url(#SVGID_11_);fill:url(#SVGID_12_);" width="15.9" height="15.9"/>
	</g>
</g>
</svg>
