<?xml version="1.0" encoding="utf-8"?>
<!-- Generator: Adobe Illustrator 19.2.0, SVG Export Plug-In . SVG Version: 6.00 Build 0)  -->
<svg version="1.1" id="Layer_1" xmlns="http://www.w3.org/2000/svg" xmlns:xlink="http://www.w3.org/1999/xlink" x="0px" y="0px"
	 viewBox="0 0 10 10" style="enable-background:new 0 0 10 10;" xml:space="preserve">
<path style="fill:#B21A34;" d="M5.4,1.8c0-0.2,0-0.2,0.2-0.3V1.3c0-0.2-0.2-0.2-0.3-0.3C5.1,1,4.7,1,4.4,1C4.1,1,3.9,1,3.5,1.2
	c-0.2,0-0.3,0.2-0.3,0.2C3,1.5,2.9,1.5,2.9,1.7C2.7,1.8,2.7,2,2.7,2C2.5,2.2,2.5,2.2,2.5,2.3c-0.2,0-0.2,0-0.3,0H2
	C1.8,2.2,1.8,2.2,1.8,2C1.7,2,1.7,1.8,1.7,1.7c0,0,0-0.2,0-0.3c0,0,0-0.2,0.2-0.3s0.3-0.3,0.7-0.3C2.7,0.5,3,0.5,3.4,0.3
	c0.3,0,0.9,0,1.4,0c0.7,0,1.4,0,1.9,0.2c0.5,0,0.9,0,1.2,0.2S8.3,0.8,8.5,1c0,0.2,0.2,0.3,0.2,0.5s0,0.2-0.2,0.3
	c0,0.2,0,0.2-0.2,0.3c0,0.2,0,0.2-0.2,0.3v0.2L4.2,8.5c0,0,0,0,0,0.2c-0.2,0-0.2,0-0.2,0.2c0,0,0,0,0,0.2c0.2,0,0.2,0,0.3,0
	c0,0,0.2,0,0.3,0c0.2,0,0.3,0,0.7,0c0.3,0,0.7,0,0.9,0C6.6,8.8,6.8,8.8,7,8.7s0.3-0.2,0.3-0.3C7.5,8.2,7.5,8,7.7,8
	c0-0.2,0-0.3,0.2-0.3L8,7.5c0.2,0,0.2,0.2,0.3,0.2c0,0,0.2,0.2,0.2,0.3c0,0,0,0.2,0.2,0.3c0,0.2,0,0.2,0,0.3C8.7,8.8,8.5,9,8.5,9
	C8.3,9.2,8,9.4,7.8,9.5c-0.3,0-0.7,0.2-1.2,0.2c-0.3,0-0.9,0-1.5,0s-1.2,0-1.7,0c-0.3,0-0.9-0.2-1-0.2C1.8,9.4,1.7,9.2,1.5,9
	C1.3,8.8,1.3,8.7,1.3,8.5s0-0.3,0.2-0.5c0-0.2,0.2-0.3,0.3-0.5L5.4,1.8z"/>
</svg>
