<?xml version="1.0" encoding="utf-8"?>
<!-- Generator: Adobe Illustrator 19.2.0, SVG Export Plug-In . SVG Version: 6.00 Build 0)  -->
<svg version="1.1" id="Layer_1" xmlns="http://www.w3.org/2000/svg" xmlns:xlink="http://www.w3.org/1999/xlink" x="0px" y="0px"
	 viewBox="0 0 41.4 7.5" style="enable-background:new 0 0 41.4 7.5;" xml:space="preserve">
<g id="Layer_x0020_1">
	<path style="fill:#FEFEFE;" d="M2.4,0.9c0-0.1,0-0.1,0.1-0.2V0.6c0-0.1-0.1-0.1-0.2-0.2c-0.1,0-0.3,0-0.5,0s-0.3,0-0.5,0.1
		c-0.1,0-0.2,0.1-0.2,0.1C1,0.7,0.9,0.7,0.9,0.8C0.8,0.9,0.8,1,0.8,1C0.7,1.1,0.7,1.1,0.7,1.2c-0.1,0-0.1,0-0.2,0H0.4
		C0.3,1.1,0.3,1.1,0.3,1C0.2,1,0.2,0.9,0.2,0.8c0,0,0-0.1,0-0.2c0,0,0-0.1,0.1-0.2s0.2-0.2,0.4-0.2C0.8,0.1,1,0.1,1.2,0
		C1.4,0,1.7,0,2,0c0.4,0,0.8,0,1.1,0.1c0.3,0,0.5,0,0.7,0.1C4,0.3,4.1,0.3,4.2,0.4c0,0.1,0.1,0.2,0.1,0.3s0,0.1-0.1,0.2
		c0,0.1,0,0.1-0.1,0.2c0,0.1,0,0.1-0.1,0.2v0.1L1.7,4.8c0,0,0,0,0,0.1c-0.1,0-0.1,0-0.1,0.1c0,0,0,0,0,0.1c0.1,0,0.1,0,0.2,0
		c0,0,0.1,0,0.2,0c0.1,0,0.2,0,0.4,0s0.4,0,0.5,0C3.1,5,3.2,5,3.3,4.9c0.1-0.1,0.2-0.1,0.2-0.2c0.1-0.1,0.1-0.2,0.2-0.2
		c0-0.1,0-0.2,0.1-0.2l0.1-0.1C4,4.2,4,4.3,4.1,4.3c0,0,0.1,0.1,0.1,0.2c0,0,0,0.1,0.1,0.2c0,0.1,0,0.1,0,0.2c0,0.1-0.1,0.2-0.1,0.2
		C4.1,5.2,3.9,5.3,3.8,5.4c-0.2,0-0.4,0.1-0.7,0.1c-0.2,0-0.5,0-0.9,0s-0.7,0-1,0c-0.2,0-0.5-0.1-0.6-0.1C0.3,5.3,0.2,5.2,0.1,5.1
		S0,4.9,0,4.8s0-0.2,0.1-0.3c0-0.1,0.1-0.2,0.2-0.3L2.4,0.9z M6.5,3.1c0,0.1,0,0.2,0,0.4c0,0.1,0.1,0.2,0.2,0.3
		c0,0.2,0.1,0.3,0.2,0.4s0.2,0.2,0.3,0.3s0.2,0.2,0.4,0.3c0.1,0,0.3,0,0.5,0c0.1,0,0.2,0,0.3,0c0.1,0,0.2-0.1,0.3-0.1
		C8.9,4.6,9,4.6,9,4.5c0.1,0,0.2-0.1,0.3-0.2l0.1,0.1C9.3,4.5,9.2,4.7,9.1,4.8C9,4.9,8.8,5,8.7,5.1C8.5,5.3,8.3,5.4,8.1,5.4
		C7.8,5.5,7.5,5.5,7.2,5.5s-0.6,0-0.9-0.1C6,5.3,5.7,5.1,5.5,4.9C5.3,4.7,5.1,4.4,5,4.1C4.9,3.8,4.8,3.4,4.8,2.9
		c0-0.3,0-0.6,0.1-0.8C5,1.8,5.1,1.6,5.2,1.3c0.2-0.2,0.3-0.4,0.5-0.6c0.2-0.1,0.4-0.3,0.6-0.4c0.2-0.1,0.4-0.2,0.6-0.2
		C7.1,0,7.3,0,7.5,0c0.3,0,0.5,0,0.7,0.1c0.2,0,0.3,0.1,0.4,0.2C8.9,0.4,9,0.5,9,0.6C9.1,0.7,9.1,0.9,9.1,1c0,0.2,0,0.3-0.1,0.5
		C8.9,1.7,8.8,1.8,8.6,1.9L6.5,3.1z M7.5,2h0.1c0-0.1,0.1-0.1,0.1-0.1c0-0.1,0-0.1,0-0.2c0,0,0-0.1,0-0.2c0,0,0-0.1,0-0.2
		c0-0.2,0-0.3-0.1-0.3c0-0.1-0.1-0.2-0.2-0.3c0,0-0.1-0.1-0.2-0.1S7,0.6,6.9,0.6C6.8,0.7,6.7,0.8,6.7,0.9C6.6,1,6.6,1.2,6.5,1.3
		c0,0.2,0,0.3-0.1,0.5c0,0.1,0,0.3,0,0.4c0,0.2,0,0.3,0,0.4L7.5,2z M11.4,3.1c0,0.1,0,0.2,0,0.4c0,0.1,0.1,0.2,0.1,0.3
		c0.1,0.2,0.2,0.3,0.3,0.4c0.1,0.1,0.2,0.2,0.3,0.3c0.1,0.1,0.2,0.2,0.4,0.3c0.1,0,0.3,0,0.5,0c0.1,0,0.2,0,0.3,0s0.2-0.1,0.3-0.1
		c0.1-0.1,0.2-0.1,0.2-0.2c0.1,0,0.2-0.1,0.3-0.2l0.1,0.1c-0.1,0.1-0.2,0.3-0.3,0.4c-0.1,0.1-0.3,0.2-0.4,0.3
		c-0.2,0.2-0.4,0.3-0.6,0.3c-0.3,0.1-0.5,0.1-0.8,0.1s-0.6,0-0.9-0.1c-0.3-0.1-0.6-0.3-0.8-0.5C10.2,4.7,10,4.4,9.9,4.1
		S9.7,3.4,9.7,2.9c0-0.3,0-0.6,0.1-0.8c0.1-0.3,0.2-0.5,0.3-0.7c0.2-0.2,0.3-0.4,0.5-0.6c0.2-0.1,0.4-0.3,0.6-0.4
		c0.2-0.1,0.4-0.2,0.6-0.2C12,0,12.2,0,12.4,0c0.3,0,0.5,0,0.7,0.1c0.2,0,0.3,0.1,0.4,0.2c0.2,0.1,0.3,0.2,0.3,0.3
		C14,0.7,14,0.9,14,1c0,0.2,0,0.3-0.1,0.5c-0.1,0.1-0.2,0.2-0.4,0.3L11.4,3.1z M12.4,2h0.1c0-0.1,0.1-0.1,0.1-0.1c0-0.1,0-0.1,0-0.2
		c0,0,0-0.1,0-0.2c0,0,0-0.1,0-0.2c0-0.2-0.1-0.3-0.1-0.3c0-0.1-0.1-0.2-0.2-0.3c0,0-0.1-0.1-0.2-0.1c-0.1,0-0.2,0.1-0.3,0.1
		c-0.1,0.1-0.2,0.2-0.2,0.3c-0.1,0.1-0.2,0.3-0.2,0.4c0,0.2,0,0.3-0.1,0.5c0,0.1,0,0.3,0,0.4c0,0.2,0,0.3,0,0.4L12.4,2z M15.1,0.9
		c0-0.1,0-0.2-0.1-0.3c0,0-0.1-0.1-0.2-0.1s-0.1,0-0.2,0.1c0,0-0.1,0-0.1,0.1l-0.1-0.2c0.1,0,0.2-0.1,0.3-0.2c0.1,0,0.2-0.1,0.3-0.1
		c0.1-0.1,0.2-0.1,0.3-0.2c0.2,0,0.3,0,0.5,0c0.1,0,0.2,0,0.3,0.1c0.2,0,0.3,0.1,0.3,0.1c0.1,0.1,0.2,0.2,0.2,0.3l0.1,0.1
		c0,0,0.1-0.1,0.2-0.2s0.2-0.2,0.3-0.2c0.1-0.1,0.2-0.1,0.4-0.2c0.1,0,0.2,0,0.4,0s0.5,0.1,0.7,0.2c0.2,0.1,0.4,0.3,0.6,0.5
		c0.1,0.2,0.3,0.5,0.4,0.8c0,0.3,0.1,0.7,0.1,1.2S19.8,3.7,19.7,4c-0.1,0.4-0.2,0.7-0.4,0.9c-0.2,0.2-0.3,0.4-0.6,0.5
		c-0.2,0.1-0.4,0.1-0.6,0.1s-0.4,0-0.5,0c-0.2,0-0.3-0.1-0.4-0.1c-0.1-0.1-0.2-0.2-0.3-0.2c0-0.1-0.1-0.1-0.1-0.2V7c0,0,0,0.1,0,0.2
		c-0.1,0-0.1,0.1-0.1,0.1c-0.1,0.1-0.2,0.1-0.3,0.2c-0.1,0-0.2,0-0.4,0s-0.3,0-0.5,0c-0.1-0.1-0.1-0.1-0.2-0.2c0,0-0.1-0.1-0.1-0.2
		V7V0.9z M16.7,4.3v0.1c0,0.1,0.1,0.2,0.1,0.3c0.1,0,0.1,0.1,0.2,0.2c0.1,0,0.2,0,0.3,0c0.2,0,0.3,0,0.4-0.1
		c0.1-0.1,0.2-0.3,0.3-0.5c0-0.2,0.1-0.4,0.1-0.7c0.1-0.3,0.1-0.5,0.1-0.8c0-0.4-0.1-0.7-0.1-1c0-0.2-0.1-0.4-0.2-0.6
		c0-0.2-0.1-0.3-0.2-0.3c-0.1-0.1-0.3-0.1-0.4-0.1s-0.1,0-0.2,0c-0.1,0.1-0.2,0.1-0.2,0.2c-0.1,0-0.1,0.1-0.2,0.2c0,0.1,0,0.2,0,0.2
		V4.3z M22.7,0.9c0.1-0.1,0.1-0.1,0.1-0.2L23,0.6c0-0.1-0.1-0.1-0.2-0.2c-0.1,0-0.3,0-0.6,0c-0.1,0-0.3,0-0.4,0.1
		c-0.1,0-0.2,0.1-0.3,0.1c-0.1,0.1-0.1,0.1-0.2,0.2c0,0.1,0,0.2-0.1,0.2c0,0.1,0,0.1-0.1,0.2h-0.1c-0.1,0-0.1,0-0.2,0
		c0-0.1,0-0.1-0.1-0.2c0,0,0-0.1,0-0.2c0,0,0-0.1,0-0.2c0,0,0-0.1,0.1-0.2c0-0.1,0.2-0.2,0.3-0.2c0.2-0.1,0.4-0.1,0.6-0.2
		c0.2,0,0.4,0,0.7,0c0.5,0,0.9,0,1.1,0.1c0.3,0,0.6,0,0.7,0.1c0.2,0.1,0.3,0.1,0.3,0.2c0.1,0.1,0.1,0.2,0.1,0.3s0,0.1,0,0.2
		S24.5,1,24.5,1.1s-0.1,0.1-0.1,0.2l-0.1,0.1l-2.1,3.4c0,0-0.1,0-0.1,0.1c0,0,0,0,0,0.1c0,0,0,0,0,0.1h0.1c0.1,0,0.2,0,0.2,0
		c0.1,0,0.3,0,0.4,0c0.2,0,0.4,0,0.6,0C23.5,5,23.6,5,23.7,4.9c0.1-0.1,0.1-0.1,0.2-0.2c0-0.1,0.1-0.2,0.1-0.2
		c0.1-0.1,0.1-0.2,0.1-0.2c0.1,0,0.1-0.1,0.2-0.1l0.1,0.1c0.1,0,0.1,0.1,0.2,0.2c0,0,0,0.1,0,0.2c0,0.1,0,0.1,0,0.2
		c0,0.1,0,0.2-0.1,0.2c-0.1,0.1-0.2,0.2-0.4,0.3c-0.1,0-0.3,0.1-0.6,0.1c-0.3,0-0.6,0-0.9,0c-0.4,0-0.7,0-1,0
		c-0.3,0-0.5-0.1-0.7-0.1c-0.1-0.1-0.2-0.2-0.3-0.3c-0.1-0.1-0.1-0.2-0.1-0.3s0-0.2,0-0.3c0.1-0.1,0.1-0.2,0.2-0.3L22.7,0.9z
		 M25.2,2.8c0-0.4,0-0.8,0.2-1.2c0.1-0.3,0.3-0.6,0.5-0.8c0.2-0.2,0.5-0.4,0.7-0.5c0.3-0.1,0.6-0.2,1-0.2c0.3,0,0.6,0.1,0.9,0.2
		c0.3,0.1,0.5,0.2,0.7,0.4c0.2,0.3,0.4,0.5,0.5,0.9C30,1.9,30,2.3,30,2.7c0,0.5,0,0.9-0.2,1.2c-0.1,0.4-0.3,0.7-0.5,0.9
		c-0.2,0.3-0.4,0.4-0.7,0.6c-0.3,0.1-0.6,0.1-0.9,0.1c-0.4,0-0.7,0-1-0.1c-0.2-0.1-0.5-0.3-0.7-0.5c-0.2-0.3-0.4-0.6-0.5-0.9
		C25.2,3.7,25.2,3.3,25.2,2.8z M28.4,2.8c0-0.3,0-0.6,0-0.8c0-0.3,0-0.5-0.1-0.7s-0.1-0.4-0.2-0.5c-0.1-0.1-0.3-0.2-0.4-0.2
		c-0.2,0-0.4,0.1-0.5,0.2S27,1,26.9,1.2c0,0.2-0.1,0.5-0.1,0.7c0,0.3,0,0.5,0,0.8s0,0.6,0,0.8c0,0.3,0.1,0.5,0.1,0.7
		C27,4.5,27,4.7,27.1,4.8C27.2,5,27.4,5,27.6,5c0.1,0,0.3,0,0.4-0.2c0.1-0.1,0.1-0.3,0.2-0.5c0.1-0.2,0.1-0.4,0.1-0.7
		S28.4,3,28.4,2.8z M30.7,2.8c0-0.4,0-0.8,0.2-1.2c0.1-0.3,0.3-0.6,0.5-0.8s0.5-0.4,0.8-0.5C32.5,0.1,32.8,0,33.2,0
		c0.3,0,0.6,0.1,0.9,0.2c0.3,0.1,0.5,0.2,0.7,0.4c0.3,0.3,0.4,0.5,0.6,0.9c0.1,0.3,0.2,0.7,0.2,1.1c0,0.5-0.1,0.9-0.2,1.2
		c-0.2,0.4-0.3,0.7-0.6,0.9c-0.2,0.3-0.4,0.4-0.7,0.6c-0.3,0.1-0.6,0.1-0.9,0.1c-0.3,0-0.6,0-0.9-0.1c-0.3-0.1-0.6-0.3-0.8-0.5
		C31.2,4.6,31,4.3,30.9,4C30.7,3.7,30.7,3.3,30.7,2.8z M34,2.8c0-0.3-0.1-0.6-0.1-0.8c0-0.3,0-0.5-0.1-0.7c0-0.2-0.1-0.4-0.2-0.5
		s-0.3-0.2-0.4-0.2c-0.2,0-0.3,0.1-0.4,0.2S32.5,1,32.4,1.2c0,0.2-0.1,0.5-0.1,0.7c0,0.3,0,0.5,0,0.8s0,0.6,0,0.8
		c0,0.3,0.1,0.5,0.1,0.7c0.1,0.2,0.2,0.4,0.3,0.5C32.8,5,32.9,5,33.2,5c0.1,0,0.3,0,0.4-0.2c0.1-0.1,0.2-0.3,0.2-0.5
		c0.1-0.2,0.1-0.4,0.1-0.7S34,3,34,2.8z M36.6,0.9c0-0.1,0-0.2-0.1-0.3c0,0-0.1-0.1-0.2-0.1s-0.1,0-0.2,0.1c0,0,0,0-0.1,0.1
		l-0.1-0.2c0.1,0,0.2-0.1,0.3-0.2c0.1,0,0.2-0.1,0.3-0.1c0.1-0.1,0.2-0.1,0.3-0.2c0.2,0,0.3,0,0.5,0c0.1,0,0.2,0,0.4,0.1
		c0.1,0,0.2,0.1,0.2,0.1c0.1,0.1,0.2,0.2,0.2,0.3l0.1,0.1c0,0,0.1-0.1,0.2-0.2s0.2-0.2,0.3-0.2c0.1-0.1,0.3-0.1,0.4-0.2
		c0.1,0,0.2,0,0.4,0c0.3,0,0.5,0.1,0.7,0.2s0.4,0.3,0.6,0.5s0.3,0.5,0.4,0.8s0.1,0.7,0.1,1.2S41.3,3.7,41.2,4
		c-0.1,0.4-0.2,0.7-0.4,0.9c-0.1,0.2-0.3,0.4-0.6,0.5c-0.2,0.1-0.4,0.1-0.6,0.1s-0.4,0-0.5,0c-0.2,0-0.3-0.1-0.4-0.1
		c-0.1-0.1-0.2-0.2-0.3-0.2c0-0.1-0.1-0.1-0.1-0.2V7c0,0,0,0.1,0,0.2c-0.1,0-0.1,0.1-0.1,0.1c-0.1,0.1-0.2,0.1-0.3,0.2
		c-0.1,0-0.2,0-0.4,0s-0.3,0-0.4,0c-0.1-0.1-0.2-0.1-0.3-0.2c0,0-0.1-0.1-0.1-0.2V7V0.9z M38.3,4.3v0.1c0,0.1,0.1,0.2,0.1,0.3
		c0.1,0,0.2,0.1,0.2,0.2c0.1,0,0.2,0,0.3,0c0.2,0,0.3,0,0.4-0.1s0.2-0.3,0.3-0.5c0-0.2,0.1-0.4,0.1-0.7c0.1-0.3,0.1-0.5,0.1-0.8
		c0-0.4,0-0.7-0.1-1c0-0.2-0.1-0.4-0.2-0.6c0-0.2-0.1-0.3-0.2-0.3c-0.1-0.1-0.3-0.1-0.4-0.1c-0.1,0-0.1,0-0.2,0
		c-0.1,0.1-0.2,0.1-0.2,0.2c-0.1,0-0.1,0.1-0.2,0.2c0,0.1,0,0.2,0,0.2V4.3z"/>
</g>
</svg>
